<svg width="72" height="48" viewBox="0 0 72 48" fill="none" xmlns="http://www.w3.org/2000/svg">
<path d="M21.7951 43.3633C18.9505 43.3633 16.636 41.0496 16.636 38.2042V9.79508C16.636 6.95053 18.9505 4.63599 21.7951 4.63599H50.2042C53.0487 4.63599 55.3633 6.94962 55.3633 9.79508V38.2042C55.3633 41.0487 53.0487 43.3633 50.2042 43.3633H21.7951Z" fill="#CBC9BC"/>
<path d="M50.2045 5.27273C52.6982 5.27273 54.7273 7.30182 54.7273 9.79545V38.2045C54.7273 40.6982 52.6982 42.7273 50.2045 42.7273H21.7955C19.3018 42.7273 17.2727 40.6982 17.2727 38.2045V9.79545C17.2727 7.30182 19.3018 5.27273 21.7955 5.27273H50.2045ZM50.2045 4H21.7955C18.5945 4 16 6.59455 16 9.79545V38.2045C16 41.4055 18.5945 44 21.7955 44H50.2045C53.4055 44 56 41.4055 56 38.2045V9.79545C56 6.59455 53.4055 4 50.2045 4Z" fill="#472B29"/>
<path d="M19.1819 19.2271C19.0564 19.2271 18.9546 19.1253 18.9546 18.9998V9.93707C18.9546 8.29253 20.2928 6.95435 21.9373 6.95435H23.2155C23.341 6.95435 23.4428 7.05616 23.4428 7.18162C23.4428 7.30707 23.341 7.40889 23.2155 7.40889H21.9373C20.5437 7.40889 19.4091 8.54344 19.4091 9.93707V18.9998C19.4091 19.1253 19.3073 19.2271 19.1819 19.2271Z" fill="#472B29"/>
<path d="M30.3756 41.045H21.9383C20.2928 41.045 18.9556 39.7069 18.9556 38.0623V22.4087C18.9556 22.2832 19.0574 22.1814 19.1828 22.1814C19.3083 22.1814 19.4101 22.2832 19.4101 22.4087V38.0623C19.4101 39.4569 20.5447 40.5905 21.9383 40.5905H30.3756C30.501 40.5905 30.6028 40.6923 30.6028 40.8178C30.6028 40.9432 30.5001 41.045 30.3756 41.045Z" fill="#472B29"/>
<path d="M43.3301 41.0451H33.3301C33.2046 41.0451 33.1028 40.9433 33.1028 40.8178C33.1028 40.6924 33.2046 40.5906 33.3301 40.5906H43.3301C43.4555 40.5906 43.5573 40.6924 43.5573 40.8178C43.5573 40.9433 43.4546 41.0451 43.3301 41.0451Z" fill="#472B29"/>
<path d="M50.0627 41.0448H45.3755C45.25 41.0448 45.1482 40.943 45.1482 40.8175C45.1482 40.6921 45.25 40.5903 45.3755 40.5903H50.0627C51.4564 40.5903 52.5909 39.4557 52.5909 38.0621V34.2839C52.5909 34.1585 52.6927 34.0566 52.8182 34.0566C52.9436 34.0566 53.0455 34.1585 53.0455 34.2839V38.0621C53.0455 39.7066 51.7073 41.0448 50.0627 41.0448Z" fill="#472B29"/>
<path d="M52.8183 31.2725C52.6929 31.2725 52.591 31.1707 52.591 31.0453V9.93707C52.591 8.54253 51.4565 7.40889 50.0629 7.40889H39.0119C38.8865 7.40889 38.7847 7.30707 38.7847 7.18162C38.7847 7.05616 38.8865 6.95435 39.0119 6.95435H50.0629C51.7083 6.95435 53.0456 8.29253 53.0456 9.93707V31.0453C53.0456 31.1707 52.9438 31.2725 52.8183 31.2725Z" fill="#472B29"/>
<path d="M35.9998 7.40889H25.6589C25.5335 7.40889 25.4316 7.30707 25.4316 7.18162C25.4316 7.05616 25.5335 6.95435 25.6589 6.95435H35.9998C36.1253 6.95435 36.2271 7.05616 36.2271 7.18162C36.2271 7.30707 36.1253 7.40889 35.9998 7.40889Z" fill="#472B29"/>
<path d="M30.2729 35.1815V31.5451H25.7274V27.9088H22.0911V12.8179H49.9092V27.9088H46.2729V31.5451H41.7274V35.1815H30.2729Z" fill="#88AE45"/>
<path d="M49.2725 13.4546V27.2728H46.9089H45.6362V28.5455V30.9092H42.3634H41.0907V32.1819V34.5455H30.9089V32.1819V30.9092H29.6362H26.3634V28.5455V27.2728H25.0907H22.7271V13.4546H49.2725ZM50.5453 12.1819H21.4543V28.5455H25.0907V32.1819H29.6362V35.8182H42.3634V32.1819H46.9089V28.5455H50.5453V12.1819Z" fill="#472B29"/>
<path d="M29.1816 15.3635H26.4543V22.1817H29.1816V15.3635Z" fill="#FBCD59"/>
<path d="M34.6365 15.3635H31.9092V22.1817H34.6365V15.3635Z" fill="#FBCD59"/>
<path d="M40.091 15.3635H37.3638V22.1817H40.091V15.3635Z" fill="#FBCD59"/>
<path d="M45.5456 15.3635H42.8184V22.1817H45.5456V15.3635Z" fill="#FBCD59"/>
<path d="M29.1821 22.4087H26.4548C26.3294 22.4087 26.2275 22.3069 26.2275 22.1814V17.636C26.2275 17.5105 26.3294 17.4087 26.4548 17.4087C26.5803 17.4087 26.6821 17.5105 26.6821 17.636V21.9541H28.9548V20.7041C28.9548 20.5787 29.0566 20.4769 29.1821 20.4769C29.3075 20.4769 29.4094 20.5787 29.4094 20.7041V22.1814C29.4094 22.3069 29.3075 22.4087 29.1821 22.4087Z" fill="#472B29"/>
<path d="M29.1821 19.5676C29.0566 19.5676 28.9548 19.4657 28.9548 19.3403V15.5903H26.6821V16.3576C26.6821 16.483 26.5803 16.5848 26.4548 16.5848C26.3294 16.5848 26.2275 16.483 26.2275 16.3576V15.363C26.2275 15.2376 26.3294 15.1357 26.4548 15.1357H29.1821C29.3075 15.1357 29.4094 15.2376 29.4094 15.363V19.3403C29.4094 19.4657 29.3075 19.5676 29.1821 19.5676Z" fill="#472B29"/>
<path d="M34.6364 22.4085H31.9092C31.7837 22.4085 31.6819 22.3067 31.6819 22.1812V15.363C31.6819 15.2376 31.7837 15.1357 31.9092 15.1357H34.6364C34.7619 15.1357 34.8637 15.2376 34.8637 15.363V16.7839C34.8637 16.9094 34.7619 17.0112 34.6364 17.0112C34.511 17.0112 34.4092 16.9094 34.4092 16.7839V15.5903H32.1364V21.9539H34.4092V18.3176C34.4092 18.1921 34.511 18.0903 34.6364 18.0903C34.7619 18.0903 34.8637 18.1921 34.8637 18.3176V22.1812C34.8637 22.3067 34.7619 22.4085 34.6364 22.4085Z" fill="#472B29"/>
<path d="M40.091 22.4085H37.3637C37.2383 22.4085 37.1365 22.3067 37.1365 22.1812V20.9312C37.1365 20.8057 37.2383 20.7039 37.3637 20.7039C37.4892 20.7039 37.591 20.8057 37.591 20.9312V21.9539H39.8637V15.5903H37.591V19.4821C37.591 19.6076 37.4892 19.7094 37.3637 19.7094C37.2383 19.7094 37.1365 19.6076 37.1365 19.4821V15.363C37.1365 15.2376 37.2383 15.1357 37.3637 15.1357H40.091C40.2165 15.1357 40.3183 15.2376 40.3183 15.363V22.1812C40.3183 22.3067 40.2165 22.4085 40.091 22.4085Z" fill="#472B29"/>
<path d="M45.5451 22.4085H42.8178C42.6924 22.4085 42.5906 22.3067 42.5906 22.1812V15.363C42.5906 15.2376 42.6924 15.1357 42.8178 15.1357H45.5451C45.6706 15.1357 45.7724 15.2376 45.7724 15.363V17.8348C45.7724 17.9603 45.6706 18.0621 45.5451 18.0621C45.4197 18.0621 45.3178 17.9603 45.3178 17.8348V15.5903H43.0451V21.9539H45.3178V19.5394C45.3178 19.4139 45.4197 19.3121 45.5451 19.3121C45.6706 19.3121 45.7724 19.4139 45.7724 19.5394V22.1812C45.7724 22.3067 45.6706 22.4085 45.5451 22.4085Z" fill="#472B29"/>
</svg>
