<svg width="264" height="72" viewBox="0 0 264 72" fill="none" xmlns="http://www.w3.org/2000/svg">
<g clip-path="url(#clip0)">
<path d="M82.848 47.32C79.9893 47.32 77.8133 46.552 76.32 45.016C74.848 43.48 74.0587 41.3573 73.952 38.648C73.9307 38.072 73.92 37.1333 73.92 35.832C73.92 34.5093 73.9307 33.5493 73.952 32.952C74.0587 30.264 74.8587 28.152 76.352 26.616C77.8453 25.0587 80.0107 24.28 82.848 24.28C84.7467 24.28 86.3573 24.6213 87.68 25.304C89.0027 25.9653 90.0053 26.84 90.688 27.928C91.3707 29.016 91.744 30.1787 91.808 31.416V31.48C91.808 31.6507 91.7333 31.8 91.584 31.928C91.456 32.0347 91.3067 32.088 91.136 32.088H89.376C88.9493 32.088 88.6827 31.8427 88.576 31.352C88.2133 29.752 87.5627 28.632 86.624 27.992C85.6853 27.3307 84.4267 27 82.848 27C79.1787 27 77.28 29.0373 77.152 33.112C77.1307 33.688 77.12 34.5733 77.12 35.768C77.12 36.9627 77.1307 37.8693 77.152 38.488C77.28 42.5627 79.1787 44.6 82.848 44.6C84.4267 44.6 85.6853 44.28 86.624 43.64C87.584 42.9787 88.2347 41.848 88.576 40.248C88.64 39.9707 88.736 39.7787 88.864 39.672C88.992 39.5653 89.1627 39.512 89.376 39.512H91.136C91.328 39.512 91.488 39.576 91.616 39.704C91.7653 39.8107 91.8293 39.96 91.808 40.152C91.744 41.4107 91.3707 42.584 90.688 43.672C90.0053 44.76 89.0027 45.6453 87.68 46.328C86.3573 46.9893 84.7467 47.32 82.848 47.32ZM100.769 47C100.555 47 100.374 46.936 100.225 46.808C100.097 46.6587 100.033 46.4773 100.033 46.264V32.92H94.4645C94.2512 32.92 94.0698 32.856 93.9205 32.728C93.7925 32.5787 93.7285 32.3973 93.7285 32.184V31.096C93.7285 30.8827 93.7925 30.712 93.9205 30.584C94.0698 30.4347 94.2512 30.36 94.4645 30.36H108.545C108.758 30.36 108.929 30.4347 109.057 30.584C109.206 30.712 109.281 30.8827 109.281 31.096V32.184C109.281 32.3973 109.206 32.5787 109.057 32.728C108.929 32.856 108.758 32.92 108.545 32.92H102.977V46.264C102.977 46.4773 102.913 46.6587 102.785 46.808C102.657 46.936 102.486 47 102.273 47H100.769ZM116.696 47.32C115.65 47.32 114.68 47.1067 113.784 46.68C112.888 46.2533 112.173 45.6773 111.64 44.952C111.128 44.2053 110.872 43.384 110.872 42.488C110.872 41.08 111.448 39.928 112.6 39.032C113.773 38.1147 115.352 37.5173 117.336 37.24L122.104 36.568V35.64C122.104 33.464 120.856 32.376 118.36 32.376C117.421 32.376 116.653 32.5787 116.056 32.984C115.458 33.368 115.01 33.8267 114.712 34.36C114.648 34.552 114.562 34.6907 114.456 34.776C114.37 34.8613 114.242 34.904 114.072 34.904H112.696C112.504 34.904 112.333 34.84 112.184 34.712C112.056 34.5627 111.992 34.392 111.992 34.2C112.013 33.688 112.248 33.112 112.696 32.472C113.165 31.8107 113.88 31.2453 114.84 30.776C115.8 30.2853 116.984 30.04 118.392 30.04C120.781 30.04 122.498 30.6053 123.544 31.736C124.589 32.8453 125.112 34.232 125.112 35.896V46.264C125.112 46.4773 125.037 46.6587 124.888 46.808C124.76 46.936 124.589 47 124.376 47H122.904C122.69 47 122.509 46.936 122.36 46.808C122.232 46.6587 122.168 46.4773 122.168 46.264V44.888C121.698 45.5707 121.016 46.1467 120.12 46.616C119.224 47.0853 118.082 47.32 116.696 47.32ZM117.368 44.92C118.754 44.92 119.885 44.472 120.76 43.576C121.656 42.6587 122.104 41.3467 122.104 39.64V38.744L118.392 39.288C116.877 39.5013 115.736 39.864 114.968 40.376C114.2 40.8667 113.816 41.496 113.816 42.264C113.816 43.1173 114.168 43.7787 114.872 44.248C115.576 44.696 116.408 44.92 117.368 44.92ZM134.8 47C134.586 47 134.405 46.936 134.256 46.808C134.128 46.6587 134.064 46.4773 134.064 46.264V32.92H128.496C128.282 32.92 128.101 32.856 127.952 32.728C127.824 32.5787 127.76 32.3973 127.76 32.184V31.096C127.76 30.8827 127.824 30.712 127.952 30.584C128.101 30.4347 128.282 30.36 128.496 30.36H142.576C142.789 30.36 142.96 30.4347 143.088 30.584C143.237 30.712 143.312 30.8827 143.312 31.096V32.184C143.312 32.3973 143.237 32.5787 143.088 32.728C142.96 32.856 142.789 32.92 142.576 32.92H137.008V46.264C137.008 46.4773 136.944 46.6587 136.816 46.808C136.688 46.936 136.517 47 136.304 47H134.8ZM146.823 47C146.609 47 146.428 46.936 146.279 46.808C146.151 46.6587 146.087 46.4773 146.087 46.264V31.096C146.087 30.8827 146.151 30.712 146.279 30.584C146.428 30.4347 146.609 30.36 146.823 30.36H148.359C148.572 30.36 148.743 30.4347 148.871 30.584C149.02 30.712 149.095 30.8827 149.095 31.096V35.8H152.679C154.791 35.8 156.359 36.3013 157.383 37.304C158.428 38.2853 158.951 39.6827 158.951 41.496C158.951 43.3733 158.396 44.76 157.287 45.656C156.199 46.552 154.535 47 152.295 47H146.823ZM152.423 44.6C153.724 44.6 154.663 44.3653 155.239 43.896C155.836 43.4267 156.135 42.6267 156.135 41.496C156.135 40.3653 155.836 39.5333 155.239 39C154.663 38.4667 153.724 38.2 152.423 38.2H149.063V44.6H152.423ZM176.262 30.36C176.433 30.36 176.582 30.424 176.71 30.552C176.859 30.68 176.934 30.8293 176.934 31V46.264C176.934 46.4773 176.859 46.6587 176.71 46.808C176.582 46.936 176.411 47 176.198 47H174.694C174.481 47 174.299 46.936 174.15 46.808C174.022 46.6587 173.958 46.4773 173.958 46.264V34.648L165.094 46.52C164.859 46.84 164.582 47 164.262 47H162.822C162.63 47 162.459 46.936 162.31 46.808C162.182 46.6587 162.118 46.4987 162.118 46.328V31.096C162.118 30.8827 162.182 30.712 162.31 30.584C162.459 30.4347 162.641 30.36 162.854 30.36H164.39C164.603 30.36 164.774 30.4347 164.902 30.584C165.051 30.712 165.126 30.8827 165.126 31.096V42.648L173.958 30.84C174.193 30.52 174.47 30.36 174.79 30.36H176.262Z" fill="#4F5665"/>
<path d="M6.3669 33.9584C6.42385 23.8923 9.07959 16.122 13.9735 10.9911C18.8401 5.88877 26.1665 3.13927 36.132 3.59707C52.1722 4.33392 70.3087 4.98411 82.2012 4.84588C92.0747 4.73111 99.5676 4.51442 106.951 4.3009L107.891 4.27373C115.58 4.05168 123.257 3.83783 133.515 3.74994C149.449 3.6134 160.559 3.93496 173.267 4.30279C179.73 4.48984 186.606 4.68885 194.74 4.84567C205.275 5.0488 218.114 4.93367 229.815 4.7194C239.147 4.54854 245.867 7.52813 250.288 12.669C254.75 17.8572 257.076 25.4864 257.076 34.977C257.076 45.555 254.31 54.2095 249.118 60.1228C243.962 65.9953 236.227 69.3774 225.802 69.0939C211.161 68.6957 194.75 68.3179 181.516 68.1932C164.817 68.036 151.484 68.1468 138.432 68.2552C137.312 68.2645 136.195 68.2738 135.078 68.2829C120.935 68.3981 106.805 68.4832 88.7142 68.1934C74.086 67.959 52.2279 66.9248 34.0658 65.9513C24.7172 65.4502 17.8375 62.0617 13.2846 56.6281C8.70743 51.1656 6.31329 43.4335 6.3669 33.9584Z" stroke="#C7EDE6" stroke-width="3.5"/>
</g>
<defs>
<clipPath id="clip0">
<rect width="264" height="72" fill="white"/>
</clipPath>
</defs>
</svg>
