<svg width="104" height="104" viewBox="0 0 104 104" fill="none" xmlns="http://www.w3.org/2000/svg">
<path d="M90.7037 58.9784C91.8841 56.7372 92.5601 54.1892 92.5601 51.48C92.5601 44.5942 88.2347 38.7327 82.1591 36.4229C82.1591 36.4156 82.1601 36.4083 82.1601 36.4C82.1601 24.3381 72.382 14.56 60.3201 14.56C50.1447 14.56 41.6199 21.529 39.1946 30.9473C37.6595 30.4429 36.0236 30.16 34.3201 30.16C26.3204 30.16 19.7362 36.1847 18.8345 43.9421C13.4223 45.0871 9.36011 49.8878 9.36011 55.64C9.36011 62.245 14.7151 67.6 21.3201 67.6C21.5042 67.6 21.6862 67.5875 21.8671 67.5771C21.863 67.7591 21.8401 67.937 21.8401 68.12C21.8401 79.8949 31.3852 89.44 43.1601 89.44C49.8546 89.44 55.8221 86.3491 59.7315 81.5215C61.9966 83.8354 65.1457 85.28 68.6401 85.28C73.4761 85.28 77.6611 82.524 79.7327 78.5013C80.8268 78.8497 81.9906 79.04 83.2001 79.04C89.5181 79.04 94.6401 73.918 94.6401 67.6C94.6401 64.1566 93.1113 61.0761 90.7037 58.9784Z" fill="#C7EDE6"/>
<path d="M28.5999 79.04H18.1999C17.9129 79.04 17.6799 78.807 17.6799 78.52C17.6799 78.233 17.9129 78 18.1999 78H28.5999C28.887 78 29.1199 78.233 29.1199 78.52C29.1199 78.807 28.888 79.04 28.5999 79.04ZM31.7199 79.04H30.6799C30.3929 79.04 30.1599 78.807 30.1599 78.52C30.1599 78.233 30.3929 78 30.6799 78H31.7199C32.007 78 32.2399 78.233 32.2399 78.52C32.2399 78.807 32.008 79.04 31.7199 79.04ZM36.9106 81.12H27.5599C27.2729 81.12 27.0399 80.887 27.0399 80.6C27.0399 80.313 27.2729 80.08 27.5599 80.08H36.9106C37.1976 80.08 37.4306 80.313 37.4306 80.6C37.4306 80.887 37.1976 81.12 36.9106 81.12ZM25.4799 81.12H24.4399C24.1529 81.12 23.9199 80.887 23.9199 80.6C23.9199 80.313 24.1529 80.08 24.4399 80.08H25.4799C25.767 80.08 25.9999 80.313 25.9999 80.6C25.9999 80.887 25.768 81.12 25.4799 81.12ZM22.3599 81.12H20.2799C19.9929 81.12 19.7599 80.887 19.7599 80.6C19.7599 80.313 19.9929 80.08 20.2799 80.08H22.3599C22.647 80.08 22.8799 80.313 22.8799 80.6C22.8799 80.887 22.648 81.12 22.3599 81.12ZM28.5999 83.2H26.5199C26.2329 83.2 25.9999 82.967 25.9999 82.68C25.9999 82.393 26.2329 82.16 26.5199 82.16H28.5999C28.887 82.16 29.1199 82.393 29.1199 82.68C29.1199 82.967 28.887 83.2 28.5999 83.2ZM31.7199 73.84C31.5358 73.84 30.864 73.84 30.6799 73.84C30.3929 73.84 30.1599 74.073 30.1599 74.36C30.1599 74.647 30.3929 74.88 30.6799 74.88C30.864 74.88 31.5358 74.88 31.7199 74.88C32.007 74.88 32.2399 74.647 32.2399 74.36C32.2399 74.073 32.007 73.84 31.7199 73.84ZM31.7199 75.92C31.5358 75.92 26.704 75.92 26.5199 75.92C26.2329 75.92 25.9999 76.153 25.9999 76.44C25.9999 76.727 26.2329 76.96 26.5199 76.96C26.704 76.96 31.5358 76.96 31.7199 76.96C32.007 76.96 32.2399 76.727 32.2399 76.44C32.2399 76.153 32.007 75.92 31.7199 75.92ZM36.9199 78C36.7358 78 33.984 78 33.7999 78C33.5129 78 33.2799 78.233 33.2799 78.52C33.2799 78.807 33.5129 79.04 33.7999 79.04C33.984 79.04 36.7358 79.04 36.9199 79.04C37.207 79.04 37.4399 78.807 37.4399 78.52C37.4399 78.233 37.207 78 36.9199 78Z" fill="white"/>
<path d="M70.2 20.8H59.8C59.513 20.8 59.28 20.567 59.28 20.28C59.28 19.993 59.513 19.76 59.8 19.76H70.2C70.4871 19.76 70.72 19.993 70.72 20.28C70.72 20.567 70.4871 20.8 70.2 20.8ZM74.36 20.8H72.28C71.993 20.8 71.76 20.567 71.76 20.28C71.76 19.993 71.993 19.76 72.28 19.76H74.36C74.6471 19.76 74.88 19.993 74.88 20.28C74.88 20.567 74.6471 20.8 74.36 20.8ZM79.56 22.88H69.16C68.873 22.88 68.64 22.647 68.64 22.36C68.64 22.073 68.873 21.84 69.16 21.84H79.56C79.8471 21.84 80.08 22.073 80.08 22.36C80.08 22.647 79.8481 22.88 79.56 22.88ZM67.08 22.88H66.04C65.753 22.88 65.52 22.647 65.52 22.36C65.52 22.073 65.753 21.84 66.04 21.84H67.08C67.3671 21.84 67.6 22.073 67.6 22.36C67.6 22.647 67.3671 22.88 67.08 22.88ZM63.9288 22.88H61.88C61.593 22.88 61.36 22.647 61.36 22.36C61.36 22.073 61.593 21.84 61.88 21.84H63.9288C64.2159 21.84 64.4488 22.073 64.4488 22.36C64.4488 22.647 64.2159 22.88 63.9288 22.88ZM73.32 18.72H68.12C67.833 18.72 67.6 18.487 67.6 18.2C67.6 17.913 67.833 17.68 68.12 17.68H73.32C73.6071 17.68 73.84 17.913 73.84 18.2C73.84 18.487 73.6081 18.72 73.32 18.72ZM70.2 24.96H68.12C67.833 24.96 67.6 24.727 67.6 24.44C67.6 24.153 67.833 23.92 68.12 23.92H70.2C70.4871 23.92 70.72 24.153 70.72 24.44C70.72 24.727 70.4871 24.96 70.2 24.96Z" fill="white"/>
<path d="M31.1783 61.2279C30.807 61.2279 30.4887 60.944 30.4544 60.5655C30.4139 60.1131 29.5194 49.4375 35.5369 43.42C35.8208 43.1361 36.2826 43.1361 36.5665 43.42C36.8504 43.7039 36.8504 44.1657 36.5665 44.4496C31.0254 49.9897 31.8958 60.3304 31.9052 60.4334C31.9416 60.8338 31.6463 61.1884 31.2459 61.2248C31.2219 61.2269 31.2001 61.2279 31.1783 61.2279ZM41.8986 38.817C41.6677 38.817 41.442 38.7078 41.2995 38.5039C41.0697 38.1743 41.1519 37.7198 41.4826 37.4899C49.3897 31.9967 59.6108 34.8275 60.0435 34.9523C60.4293 35.0615 60.6539 35.4651 60.5427 35.8509C60.4314 36.2367 60.0289 36.4676 59.6441 36.3511C59.5442 36.3241 49.6455 33.5931 42.3135 38.6859C42.1856 38.7743 42.0421 38.817 41.8986 38.817ZM73.0798 45.6373C72.8438 45.6373 72.6139 45.5239 72.4735 45.3128C68.7545 39.7353 62.8785 37.3256 62.8202 37.3017C62.4479 37.1519 62.267 36.7276 62.4157 36.3553C62.5644 35.983 62.9918 35.8051 63.361 35.9497C63.619 36.0537 69.7071 38.5393 73.6841 44.5047C73.9077 44.8396 73.8172 45.292 73.4834 45.5146C73.3575 45.5978 73.2171 45.6373 73.0798 45.6373ZM76.0023 66.1003C75.9419 66.1003 75.8826 66.0931 75.8223 66.0785C75.4334 65.9797 75.1963 65.5835 75.295 65.1935C77.1899 57.6919 75.8847 50.6262 74.4069 48.2144C74.1968 47.8712 74.3039 47.423 74.6461 47.2129C74.9914 47.0007 75.4386 47.112 75.6476 47.4521C77.2565 50.076 78.7042 57.6431 76.7074 65.5502C76.6242 65.8799 76.3278 66.1003 76.0023 66.1003Z" fill="#472B29"/>
<path d="M73.079 39.7915C72.8814 39.7915 72.6838 39.7114 72.5402 39.5533C63.1802 29.2583 49.003 31.953 48.8615 31.9831C48.4663 32.0507 48.0826 31.8063 48.0046 31.4122C47.9255 31.017 48.1814 30.6343 48.5755 30.5552C48.7253 30.5261 63.7096 27.6755 73.6166 38.5747C73.8881 38.8721 73.8652 39.3328 73.5678 39.6022C73.4284 39.728 73.2537 39.7915 73.079 39.7915ZM36.0508 38.817C35.8646 38.817 35.6785 38.7463 35.536 38.6038C35.2521 38.3199 35.2521 37.8581 35.536 37.5742C36.9702 36.139 39.9539 33.1531 44.1066 31.7939C44.4883 31.6722 44.9002 31.8771 45.025 32.2587C45.1498 32.6404 44.9418 33.0523 44.5601 33.1771C40.7381 34.4282 37.9197 37.2476 36.5656 38.6038C36.4231 38.7463 36.238 38.817 36.0508 38.817ZM36.0518 53.4331C36.0102 53.4331 35.9686 53.429 35.927 53.4217C35.5308 53.3541 35.2646 52.9766 35.3342 52.5803C35.7846 49.9803 38.9555 43.1163 45.4493 39.6563C50.591 36.9138 56.4639 36.9855 62.9005 39.858C63.2686 40.0223 63.433 40.4529 63.2686 40.82C63.1054 41.1882 62.6738 41.3494 62.3066 41.1882C56.2975 38.505 50.8562 38.4239 46.1326 40.9407C39.9914 44.2135 37.1189 50.7988 36.7674 52.8279C36.707 53.1835 36.3992 53.4331 36.0518 53.4331ZM72.1055 64.1514C72.0546 64.1514 72.0026 64.1462 71.9526 64.1347C71.5595 64.0505 71.3089 63.6636 71.3931 63.2705C74.1699 50.31 65.4183 43.2016 65.3289 43.134C65.0086 42.8896 64.9482 42.432 65.1916 42.1138C65.4339 41.7935 65.8905 41.7311 66.2118 41.9765C66.3086 42.0503 75.8298 49.5134 72.8169 63.5763C72.743 63.9174 72.4404 64.1514 72.1055 64.1514ZM35.0774 69.0227C34.6749 69.0227 34.3504 68.6972 34.3494 68.2947C34.3494 67.8933 34.6749 67.5678 35.0774 67.5667C35.1793 67.5667 45.3515 67.4825 48.0503 61.1874C48.2105 60.8182 48.639 60.6507 49.0061 60.8047C49.3753 60.9627 49.5479 61.3912 49.3888 61.7604C46.3094 68.9406 35.5339 69.0227 35.0774 69.0227Z" fill="#472B29"/>
<path d="M51.6412 71.9472C51.4332 71.9472 51.2263 71.8578 51.0817 71.6851C50.8248 71.3763 50.8664 70.9176 51.1753 70.6597C54.8808 67.5709 56.7591 63.1696 56.7591 57.5775C56.7591 56.393 56.3472 54.4076 53.5902 54.4076C51.2627 54.4076 50.4068 57.7211 50.3984 57.7543C50.3007 58.1443 49.8982 58.3794 49.5155 58.2837C49.1255 58.1859 48.8884 57.7907 48.9861 57.4007C49.0308 57.2187 50.1374 52.9516 53.5902 52.9516C57.0004 52.9516 58.2151 55.3415 58.2151 57.5775C58.2151 63.6231 56.159 68.3998 52.1072 71.7787C51.972 71.8911 51.8056 71.9472 51.6412 71.9472Z" fill="#472B29"/>
<path d="M36.0496 72.9207C35.6669 72.9207 35.3445 72.6212 35.3237 72.2332C35.3019 71.8308 35.6087 71.4876 36.0101 71.4657C52.672 70.5401 52.8623 58.1059 52.8623 57.5776C52.8623 57.1751 53.1878 56.8495 53.5903 56.8495C53.9928 56.8495 54.3183 57.1751 54.3183 57.5776C54.3183 57.7211 54.1103 71.9191 36.0912 72.9207C36.0767 72.9196 36.0642 72.9207 36.0496 72.9207ZM60.4116 66.1004C60.3399 66.1004 60.266 66.0889 60.1943 66.0671C59.8105 65.9475 59.5973 65.5387 59.7169 65.155C61.3622 59.8905 61.2572 55.9385 59.406 53.4072C57.3228 50.5607 53.6256 50.5097 53.5882 50.5097C53.1868 50.5076 52.8623 50.1811 52.8633 49.7796C52.8644 49.3782 53.1888 49.0537 53.5903 49.0537C53.7712 49.0537 58.0404 49.0932 60.5697 52.5325C62.7194 55.458 62.8993 59.85 61.1064 65.5908C61.0086 65.8996 60.7216 66.1004 60.4116 66.1004ZM34.1028 65.1259C33.7003 65.1259 33.3748 64.8004 33.3748 64.3979C33.3748 63.9954 33.7003 63.6699 34.1028 63.6699C43.7644 63.6699 45.0664 60.5904 45.0664 57.5776C45.0664 52.3162 49.814 49.8816 50.0168 49.7807C50.3746 49.5987 50.8114 49.7464 50.9924 50.1052C51.1723 50.464 51.0277 50.9018 50.6689 51.0817C50.4994 51.168 46.5224 53.2283 46.5224 57.5776C46.5224 64.3428 39.4348 65.1259 34.1028 65.1259Z" fill="#472B29"/>
<path d="M42.3044 57.6576L41.5827 57.5474C42.294 48.2155 47.3983 45.6602 51.5552 45.161C58.8789 44.2874 64.004 49.5737 64.9983 52.468C65.1293 52.8487 64.9265 53.2626 64.5459 53.3936C64.1642 53.5215 63.7513 53.3219 63.6203 52.9412C62.8673 50.7468 58.3693 45.812 51.7289 46.6066C46.4696 47.2379 43.5451 50.9569 43.0345 57.6576H42.3044ZM62.3587 69.9983C62.2069 69.9983 62.054 69.9504 61.923 69.8516C61.6006 69.6114 61.5361 69.1548 61.7774 68.8335C64.5199 65.1768 64.5552 57.6524 64.5552 57.5775C64.5552 57.1751 64.8807 56.8495 65.2832 56.8495C65.6857 56.8495 66.0112 57.1751 66.0112 57.5775C66.0112 57.9051 65.9759 65.6615 62.9411 69.7071C62.7997 69.8974 62.5803 69.9983 62.3587 69.9983ZM41.8967 79.742C41.5473 79.742 41.2395 79.4903 41.1802 79.1336C41.1147 78.7374 41.3809 78.363 41.7782 78.2954C41.8915 78.2756 53.187 76.2923 57.8264 67.9411C58.0219 67.5896 58.4639 67.4627 58.8165 67.6583C59.168 67.8538 59.2949 68.2968 59.0994 68.6483C54.1136 77.6225 42.5093 79.6495 42.0174 79.7316C41.9768 79.7389 41.9363 79.742 41.8967 79.742ZM38.9743 76.8186C38.6249 76.8186 38.3171 76.5669 38.2578 76.2102C38.1923 75.8139 38.4595 75.4385 38.8558 75.3719C38.913 75.3626 44.5831 74.3985 47.3401 72.5608C47.6791 72.3362 48.1284 72.4287 48.3499 72.7615C48.5735 73.0964 48.4831 73.5488 48.1492 73.7714C45.1311 75.7848 39.3404 76.7676 39.096 76.8082C39.0544 76.8155 39.0139 76.8186 38.9743 76.8186ZM38.9743 61.2279C38.6249 61.2279 38.316 60.9763 38.2578 60.6195C38.2162 60.3699 37.2739 54.4503 40.2993 49.4063C40.5063 49.062 40.9514 48.9487 41.2987 49.1567C41.643 49.3636 41.7543 49.8108 41.5483 50.1561C38.7955 54.7456 39.6847 60.3242 39.694 60.3803C39.7595 60.7776 39.4923 61.152 39.096 61.2186C39.0544 61.2248 39.0139 61.2279 38.9743 61.2279Z" fill="#472B29"/>
<path d="M69.181 60.2545C68.7786 60.2545 68.453 59.929 68.453 59.5265C68.453 54.1206 66.9575 49.8847 64.006 46.9384C60.885 43.8236 56.597 42.7139 53.6164 42.7139C53.6081 42.7139 53.6008 42.7139 53.5935 42.7139C49.0706 42.7232 45.3848 45.2213 44.3989 46.3601C44.1337 46.6648 43.674 46.696 43.3724 46.434C43.0677 46.1698 43.0354 45.7112 43.2986 45.4075C44.4686 44.0576 48.5214 41.2693 53.5914 41.2579C53.5998 41.2579 53.6081 41.2579 53.6154 41.2579C56.8882 41.2579 61.5994 42.4788 65.0335 45.9077C68.269 49.1369 69.909 53.7192 69.909 59.5265C69.909 59.9279 69.5825 60.2545 69.181 60.2545ZM73.079 71.9472C72.9469 71.9472 69.83 71.9233 67.6918 69.7851C65.3986 67.4908 67.4661 63.2757 67.5555 63.0968C67.7354 62.738 68.1722 62.5945 68.531 62.7713C68.8909 62.9502 69.0365 63.388 68.8576 63.7468C68.3823 64.7026 67.4318 67.4659 68.7203 68.7534C70.4238 70.4569 73.053 70.4892 73.079 70.4892C73.4804 70.4912 73.8049 70.8178 73.8038 71.2192C73.8028 71.6207 73.4794 71.9472 73.079 71.9472ZM50.668 80.7155C50.3841 80.7155 50.1126 80.547 49.9962 80.2672C49.8422 79.896 50.018 79.4696 50.3882 79.3146C50.408 79.3073 52.3164 78.5075 54.1988 77.4093C57.3958 75.5425 59.5028 77.1306 59.8834 77.4603L62.7653 79.3822C63.0991 79.6048 63.1896 80.0561 62.966 80.392C62.7434 80.7259 62.2952 80.8205 61.9562 80.5927L59.0327 78.6438C58.9974 78.6209 58.963 78.5928 58.9318 78.5627C58.8767 78.5128 57.4207 77.2159 54.931 78.6677C52.9622 79.8159 51.0289 80.626 50.9478 80.6604C50.8562 80.6978 50.7616 80.7155 50.668 80.7155ZM35.0774 62.2024C34.6749 62.2024 34.3494 61.8769 34.3494 61.4744V56.602C34.3494 56.1996 34.6749 55.874 35.0774 55.874C35.4798 55.874 35.8054 56.1996 35.8054 56.602V61.4744C35.8054 61.8759 35.4788 62.2024 35.0774 62.2024ZM66.6653 77.9553C66.6289 77.9553 66.5935 77.9522 66.5571 77.947C64.6123 77.6558 62.4762 76.5856 61.1158 75.2243C59.3853 73.4927 60.5241 71.1537 60.574 71.0549C60.7529 70.6951 61.1928 70.5495 61.5495 70.7294C61.9083 70.9083 62.0539 71.344 61.8771 71.7028C61.848 71.7642 61.1616 73.2108 62.1454 74.1947C63.3009 75.3512 65.1167 76.258 66.7724 76.5076C67.1707 76.568 67.4442 76.9382 67.385 77.3355C67.3298 77.6964 67.0189 77.9553 66.6653 77.9553ZM69.4254 74.8696C69.3859 74.8696 69.3454 74.8665 69.3048 74.8592C66.6611 74.4183 64.7569 72.4537 64.6768 72.3695C64.3991 72.0803 64.4095 71.6196 64.6986 71.343C64.9888 71.0622 65.4485 71.0716 65.7272 71.3638C65.7438 71.3804 67.3881 73.0642 69.544 73.423C69.9402 73.4885 70.2086 73.8639 70.142 74.2612C70.0838 74.6169 69.7749 74.8696 69.4254 74.8696Z" fill="#472B29"/>
<path d="M80.6 45.24V45.76H83.72V45.24C83.72 45.24 88.1317 45.24 89.44 45.24C92.0244 45.24 94.12 43.1444 94.12 40.56C94.12 38.1337 92.2668 36.1619 89.9028 35.9268C89.9257 35.7386 89.96 35.5545 89.96 35.36C89.96 32.7756 87.8644 30.68 85.28 30.68C83.7845 30.68 82.4689 31.3935 81.612 32.4855C81.4664 29.744 79.2179 27.56 76.44 27.56C73.5686 27.56 71.24 29.8886 71.24 32.76C71.24 33.2239 71.3201 33.6648 71.4345 34.0933C70.7668 33.2852 69.7695 32.76 68.64 32.76C66.7878 32.76 65.2767 34.1484 65.0468 35.9372C64.8586 35.9143 64.6745 35.88 64.48 35.88C61.8956 35.88 59.8 37.9756 59.8 40.56C59.8 43.1444 61.8956 45.24 64.48 45.24C67.0644 45.24 74.36 45.24 74.36 45.24H80.6Z" fill="#FDFCEF"/>
<path d="M76.44 27.04C73.2857 27.04 70.72 29.6057 70.72 32.76C70.72 32.7767 70.72 32.7923 70.72 32.8089C70.0939 32.4397 69.3784 32.24 68.64 32.24C66.7358 32.24 65.0926 33.5515 64.6277 35.3652C64.5788 35.3621 64.5299 35.36 64.48 35.36C61.6127 35.36 59.28 37.6927 59.28 40.56C59.28 43.4273 61.6127 45.76 64.48 45.76H80.6C80.8871 45.76 81.12 45.5271 81.12 45.24C81.12 44.953 80.8871 44.72 80.6 44.72H64.48C62.1858 44.72 60.32 42.8543 60.32 40.56C60.32 38.2658 62.1858 36.4 64.48 36.4C64.6017 36.4 64.7192 36.4177 64.8367 36.4333L64.9834 36.453C65.0052 36.4562 65.026 36.4572 65.0479 36.4572C65.3037 36.4572 65.5283 36.2648 65.5627 36.0027C65.7613 34.45 67.0842 33.28 68.64 33.28C69.5604 33.28 70.432 33.697 71.0331 34.424C71.135 34.5467 71.2837 34.6133 71.4345 34.6133C71.5156 34.6133 71.5968 34.5946 71.6716 34.5551C71.889 34.4438 71.9982 34.1952 71.9358 33.9591C71.8162 33.5067 71.76 33.1261 71.76 32.76C71.76 30.1798 73.8598 28.08 76.44 28.08C78.9163 28.08 80.9609 30.0269 81.093 32.5135C81.1044 32.7299 81.249 32.916 81.4559 32.9815C81.5079 32.9982 81.561 33.0065 81.614 33.0065C81.77 33.0065 81.9219 32.9347 82.0217 32.8068C82.8235 31.7855 84.0102 31.2 85.28 31.2C87.5743 31.2 89.44 33.0658 89.44 35.36C89.44 35.4817 89.4223 35.5992 89.4067 35.7167L89.387 35.8634C89.3703 36.0027 89.4099 36.1421 89.4972 36.2513C89.5846 36.3605 89.7125 36.4302 89.8508 36.4437C91.9891 36.6569 93.6 38.427 93.6 40.56C93.6 42.8543 91.7343 44.72 89.44 44.72H83.72C83.433 44.72 83.2 44.953 83.2 45.24C83.2 45.5271 83.433 45.76 83.72 45.76H89.44C92.3073 45.76 94.64 43.4273 94.64 40.56C94.64 38.0671 92.8835 35.9705 90.4769 35.4879C90.479 35.4453 90.48 35.4027 90.48 35.36C90.48 32.4927 88.1473 30.16 85.28 30.16C84.057 30.16 82.8953 30.5926 81.9697 31.3706C81.3478 28.8704 79.0972 27.04 76.44 27.04Z" fill="#472B29"/>
<path d="M74.8799 34.32C73.4208 34.32 72.1665 35.359 71.8504 36.7546C71.4687 36.5238 71.0329 36.4 70.5899 36.4C69.3398 36.4 68.304 37.3329 68.1428 38.5507C67.9317 38.5029 67.7309 38.48 67.5354 38.48C65.9453 38.48 64.612 39.728 64.5007 41.3213C64.4903 41.4648 64.5985 41.5896 64.7409 41.6C64.7472 41.6 64.7534 41.6 64.7597 41.6C64.8949 41.6 65.0093 41.495 65.0186 41.3587C65.1112 40.0369 66.2156 39 67.5344 39C67.7725 39 68.0232 39.0437 68.3019 39.1321C68.3248 39.1394 68.3487 39.1425 68.3716 39.1425C68.4288 39.1425 68.486 39.1217 68.5338 39.0863C68.6004 39.0385 68.6399 38.9532 68.6399 38.87C68.6399 37.7946 69.5145 36.92 70.5899 36.92C71.0548 36.92 71.5103 37.0947 71.8701 37.4119C71.919 37.4546 71.9804 37.4774 72.0417 37.4774C72.075 37.4774 72.1073 37.4712 72.1385 37.4577C72.23 37.4213 72.2924 37.336 72.2996 37.2372C72.4078 35.8925 73.5404 34.84 74.8799 34.84C75.0962 34.84 75.3219 34.8754 75.5892 34.9513C75.6131 34.9586 75.6381 34.9617 75.662 34.9617C75.7753 34.9617 75.8773 34.8858 75.9105 34.7724C75.9501 34.6341 75.87 34.4906 75.7317 34.451C75.4176 34.3616 75.1461 34.32 74.8799 34.32ZM89.3182 35.88C87.9392 35.88 86.7099 36.8129 86.3293 38.1493C86.2897 38.2876 86.3698 38.4311 86.5081 38.4706C86.5331 38.4769 86.557 38.48 86.5799 38.48C86.6933 38.48 86.7973 38.4051 86.8295 38.2907C87.1467 37.1779 88.1701 36.4 89.3182 36.4C89.4399 36.4 89.5574 36.4146 89.6739 36.4302C89.6864 36.4322 89.6978 36.4333 89.7103 36.4333C89.8361 36.4333 89.9485 36.3376 89.9661 36.2076C89.9859 36.0651 89.8861 35.9341 89.7436 35.9154C89.6042 35.8966 89.4628 35.88 89.3182 35.88Z" fill="#472B29"/>
<path d="M34.8401 65C34.8401 65 36.4698 65 38.4801 65C40.4904 65 42.1201 63.3703 42.1201 61.36C42.1201 59.5077 40.7317 57.9966 38.9429 57.7668C38.972 57.5806 39.0001 57.3945 39.0001 57.2C39.0001 55.1897 37.3704 53.56 35.3601 53.56C34.2868 53.56 33.3321 54.0332 32.6665 54.7716C32.2672 52.8913 30.6 51.48 28.6001 51.48C26.3028 51.48 24.4401 53.3426 24.4401 55.64C24.4401 55.8386 24.4713 56.0289 24.4984 56.2203C24.0532 55.8625 23.4958 55.64 22.8801 55.64C21.603 55.64 20.5453 56.5625 20.3269 57.7772C20.1408 57.7481 19.9546 57.72 19.7601 57.72C17.7498 57.72 16.1201 59.3497 16.1201 61.36C16.1201 63.3703 17.7498 65 19.7601 65C21.7704 65 27.5601 65 27.5601 65V65.52H34.8401V65Z" fill="#FDFCEF"/>
<path d="M36.6601 60.32C36.5166 60.32 36.4001 60.2035 36.4001 60.06C36.4001 58.7881 37.4349 57.7533 38.7068 57.7533C38.7422 57.7626 39.4733 57.7522 40.0006 57.8947C40.1389 57.9321 40.2211 58.0746 40.1836 58.2129C40.1462 58.3523 40.0037 58.4345 39.8654 58.396C39.4036 58.2712 38.7214 58.2712 38.7079 58.2733C37.722 58.2733 36.9201 59.0751 36.9201 60.06C36.9201 60.2035 36.8036 60.32 36.6601 60.32ZM29.6401 64.48C29.5022 64.48 29.3699 64.5348 29.2724 64.6323C29.1749 64.7298 29.1201 64.8621 29.1201 65C29.1201 65.1379 29.1749 65.2702 29.2724 65.3677C29.3699 65.4652 29.5022 65.52 29.6401 65.52C29.778 65.52 29.9103 65.4652 30.0078 65.3677C30.1053 65.2702 30.1601 65.1379 30.1601 65C30.1601 64.8621 30.1053 64.7298 30.0078 64.6323C29.9103 64.5348 29.778 64.48 29.6401 64.48Z" fill="#472B29"/>
<path d="M38.4801 65.52H34.8401C34.5531 65.52 34.3201 65.287 34.3201 65C34.3201 64.713 34.5531 64.48 34.8401 64.48H38.4801C40.2003 64.48 41.6001 63.0802 41.6001 61.36C41.6001 59.8042 40.4301 58.4813 38.8774 58.2826C38.738 58.2639 38.6122 58.1911 38.5279 58.0788C38.4437 57.9665 38.4083 57.825 38.4302 57.6867C38.4541 57.5266 38.4801 57.3664 38.4801 57.2C38.4801 55.4798 37.0803 54.08 35.3601 54.08C34.4761 54.08 33.6566 54.4492 33.0523 55.12C32.9223 55.2646 32.7185 55.3259 32.5323 55.2739C32.3431 55.223 32.1985 55.0711 32.1579 54.8798C31.8033 53.2116 30.3067 52 28.6001 52C26.5929 52 24.9601 53.6328 24.9601 55.64C24.9601 55.7887 24.9819 55.9312 25.0027 56.0747C25.0329 56.2858 24.9372 56.5302 24.7511 56.6363C24.5649 56.7424 24.3392 56.759 24.1728 56.6259C23.7932 56.3212 23.3471 56.16 22.8801 56.16C21.8755 56.16 21.0164 56.8786 20.8386 57.8698C20.7887 58.1474 20.5307 58.3336 20.2468 58.291C20.0867 58.266 19.9265 58.24 19.7601 58.24C18.0399 58.24 16.6401 59.6398 16.6401 61.36C16.6401 63.0802 18.0399 64.48 19.7601 64.48H27.5601C27.8471 64.48 28.0801 64.713 28.0801 65C28.0801 65.287 27.8471 65.52 27.5601 65.52H19.7601C17.4659 65.52 15.6001 63.6542 15.6001 61.36C15.6001 59.0658 17.4659 57.2 19.7601 57.2C19.8215 57.2 19.8807 57.2021 19.9411 57.2062C20.3716 55.9728 21.5395 55.12 22.8801 55.12C23.2431 55.12 23.5967 55.1834 23.9315 55.3072C24.1031 52.8809 26.1311 50.96 28.6001 50.96C30.5043 50.96 32.2047 52.1321 32.9192 53.8449C33.6264 53.327 34.4813 53.04 35.3601 53.04C37.6543 53.04 39.5201 54.9058 39.5201 57.2C39.5201 57.2499 39.5191 57.2988 39.5159 57.3477C41.3287 57.8136 42.6401 59.4558 42.6401 61.36C42.6401 63.6542 40.7743 65.52 38.4801 65.52Z" fill="#472B29"/>
<path d="M32.7602 64.48C32.5948 64.48 31.8856 64.48 31.7202 64.48C31.4332 64.48 31.2002 64.7129 31.2002 65C31.2002 65.287 31.4332 65.52 31.7202 65.52C31.8856 65.52 32.5948 65.52 32.7602 65.52C33.0472 65.52 33.2802 65.287 33.2802 65C33.2802 64.7129 33.0472 64.48 32.7602 64.48Z" fill="#472B29"/>
</svg>
