<svg width="72" height="48" viewBox="0 0 72 48" fill="none" xmlns="http://www.w3.org/2000/svg">
<path d="M33.738 8.08545C29.1864 8.08545 24.8213 9.89354 21.6029 13.112C18.3845 16.3304 16.5764 20.6955 16.5764 25.247C16.5764 29.7985 18.3845 34.1636 21.6029 37.3821C24.8213 40.6005 29.1864 42.4086 33.738 42.4086C38.2895 42.4086 42.6546 40.6005 45.873 37.3821C49.0914 34.1636 50.8995 29.7985 50.8995 25.247C50.8995 20.6955 49.0914 16.3304 45.873 13.112C42.6546 9.89354 38.2895 8.08545 33.738 8.08545Z" fill="#88BBED"/>
<path d="M33.7311 43C31.2742 43 28.8224 42.4829 26.5115 41.452C17.5782 37.4661 13.5535 26.9576 17.5386 18.0251C19.4684 13.6978 22.9685 10.3808 27.3931 8.68596C31.8194 6.99199 36.639 7.1223 40.9655 9.05131C45.2928 10.982 48.609 14.4813 50.3038 18.9059C51.9986 23.3305 51.8691 28.151 49.9384 32.4783C48.0086 36.8055 44.5085 40.1217 40.0839 41.8165C38.0213 42.6058 35.8737 43 33.7311 43ZM33.7434 8.65792C31.7402 8.65792 29.7328 9.02575 27.8055 9.76387C23.6687 11.349 20.397 14.4499 18.5917 18.4952C14.8665 26.8463 18.6297 36.6711 26.9808 40.3972C35.331 44.1224 45.1575 40.3593 48.8828 32.0082C50.6873 27.9629 50.8085 23.4558 49.2242 19.3191C47.6399 15.1823 44.539 11.9106 40.4938 10.1061C38.3338 9.14203 36.0411 8.65792 33.7434 8.65792Z" fill="#472B29"/>
<path d="M17.6984 23.6877C17.6712 23.5541 17.7363 23.2341 17.7883 22.9768C17.8394 22.7244 17.8881 22.4852 17.8881 22.303C17.8881 22.1273 18.1478 21.7273 18.3202 21.4618C18.4513 21.2605 18.5643 21.0865 18.6163 20.9546C18.6955 20.7542 18.9998 20.2874 19.2686 19.8758C19.3857 19.696 19.4987 19.5229 19.5903 19.3761C19.6686 19.2507 19.8311 18.9893 19.6645 18.8194C19.6109 18.7641 19.5474 18.7468 19.4748 18.7427C19.4963 18.7221 19.5144 18.7056 19.5301 18.6948C19.7165 18.5703 20.7729 17.8248 20.801 17.8025C20.8199 17.7827 21.2735 17.311 20.7746 16.3807C20.5956 16.0508 20.6443 15.9609 20.7069 15.8479C20.7482 15.7729 20.7993 15.6797 20.7993 15.5502C20.7993 15.4636 20.7441 15.3852 20.6616 15.3564C20.6509 15.3523 20.5923 15.3325 20.5098 15.3209C20.4364 15.3127 20.3606 15.3424 20.316 15.4034C18.2847 18.1596 17.1673 21.4214 17.0848 24.8357C17.0823 24.9347 17.1516 25.0221 17.2481 25.0419C17.2621 25.0452 17.2769 25.0468 17.291 25.0468C17.3734 25.0468 17.4485 24.9973 17.4815 24.9198C17.5912 24.6559 17.7536 23.9714 17.6984 23.6877ZM23.7271 33.4325C23.6099 33.4095 23.3774 33.2396 23.2075 33.115C22.9411 32.9204 22.7828 32.8099 22.6335 32.8099C22.5048 32.8099 22.2343 32.7084 22.0677 32.5979C21.9993 32.5509 21.9086 32.5056 21.8121 32.4569C21.6785 32.3893 21.4962 32.2986 21.4434 32.2194C21.3626 32.099 21.1614 31.7831 21.0294 31.4507L20.9807 31.3213C20.8991 31.0945 20.8504 30.9914 20.434 30.5246L20.354 30.4347C20.0175 30.0545 19.9969 30.0314 19.7775 29.9283L19.629 29.8566C19.4649 29.7749 19.3536 29.6933 19.2447 29.6141C19.121 29.5242 18.9932 29.4302 18.8093 29.3568C18.5239 29.2405 18.406 29.1506 18.1866 28.9601C18.02 28.8133 17.8757 28.7275 17.7454 28.6945C17.6753 28.6789 17.6027 28.697 17.5507 28.7465C17.4996 28.7968 17.4782 28.8694 17.4938 28.9395C18.2328 32.1781 19.9193 35.1018 22.3729 37.3937C22.3976 37.4168 22.4281 37.4341 22.4611 37.4431C22.5271 37.4605 22.5848 37.4662 22.6376 37.4662C22.7522 37.4662 22.8388 37.4349 22.9081 37.4093C22.9675 37.3879 23.0104 37.3722 23.0698 37.3722C23.3741 37.3722 23.7477 37.0737 23.8203 37.0135C23.8854 36.959 23.911 36.87 23.8838 36.79L23.6553 36.1063L23.8854 35.2469L24.1914 34.3876C24.1996 34.3653 24.2037 34.3414 24.2037 34.3183C24.2029 34.2375 24.1897 33.5274 23.7271 33.4325ZM27.4037 10.6175C27.4614 10.6175 27.5166 10.5936 27.5554 10.5507C27.5554 10.5507 27.7946 10.291 27.9925 10.0378C28.0494 9.96437 28.0511 9.86211 27.9958 9.78788C27.9414 9.71283 27.8432 9.68644 27.7558 9.71778C25.7872 10.4757 23.9992 11.5891 22.4421 13.0257C22.4199 13.0463 22.4017 13.0727 22.391 13.1008C22.3589 13.1808 22.3308 13.2566 22.3094 13.3325C22.2797 13.4529 22.3094 13.5634 22.3918 13.6368C22.5246 13.7564 22.7481 13.7259 22.9353 13.6665L23.417 13.881C23.4434 13.8933 23.4722 13.8983 23.5011 13.8983C23.525 13.8983 23.5489 13.8942 23.5712 13.8859L24.2532 13.6385C24.3027 13.6203 24.3431 13.5841 24.367 13.537C24.3687 13.5337 24.5394 13.2039 24.9221 12.9317C25.2462 12.6991 25.3278 12.5845 25.4235 12.4237C25.4499 12.3791 25.4788 12.3297 25.5258 12.2678C25.6074 12.1581 25.6074 12.1581 25.6759 12.0897C25.7542 12.0113 25.9101 11.8554 26.3158 11.4192C27.0243 10.6563 27.4078 10.6175 27.4037 10.6175ZM45.1466 31.9439C45.0658 31.9398 44.98 31.9761 44.9396 32.0511L44.477 32.9171C44.1999 33.0392 43.6926 33.2981 43.6184 33.5851C43.5648 33.8004 43.5112 34.103 43.4955 34.1938C43.4337 34.3307 43.1854 34.8915 43.1228 35.1331C43.0593 35.3847 43.1318 35.8119 43.3207 35.9867C43.385 36.0461 43.4609 36.0774 43.5401 36.0774C43.5731 36.0774 43.6052 36.0716 43.6374 36.0609C43.7908 36.0098 43.9533 35.8539 44.1256 35.6906C44.2147 35.6048 44.2996 35.5232 44.3664 35.4778C44.6056 35.3178 44.9355 34.776 45.0081 34.489C45.046 34.3381 45.1062 34.1171 45.1615 33.9125L45.2555 33.5637C45.2555 33.5628 45.2555 33.562 45.2563 33.5612C45.3206 33.3039 45.3866 32.7942 45.3907 32.5823C45.3907 32.3744 45.3256 32.1097 45.3223 32.0982C45.3008 32.0157 45.2308 31.9546 45.1466 31.9439Z" fill="#CAD34F"/>
<path d="M42.5184 11.1257C42.4549 11.0853 42.3749 11.0844 42.3089 11.1199L42.1786 11.1958C42.0615 11.2651 41.7465 11.4465 41.6747 11.435C41.551 11.3121 41.3308 11.1397 41.1823 11.0267C41.1898 10.9896 41.1906 10.9558 41.1881 10.9302C41.1617 10.597 40.5885 10.2886 40.2496 10.1335C40.2273 10.1228 40.2026 10.1171 40.1778 10.1162L38.8657 10.0288H37.9387C37.8521 10.0288 37.7276 10.0404 37.5874 10.0527C37.4241 10.0692 37.2369 10.0865 37.0695 10.0865C36.8493 10.0865 36.5441 10.2325 36.1359 10.4387C35.9751 10.5203 35.7928 10.6127 35.7194 10.6309C35.6048 10.6589 35.4572 10.724 35.2848 10.7999C35.1001 10.8807 34.8221 11.0028 34.7174 11.0028C34.3966 11.0028 34.0386 11.4201 33.9166 11.5768C33.557 12.2349 33.7022 12.4081 33.7492 12.465C33.7871 12.5104 33.8976 12.6061 34.1038 12.5401C34.4147 12.4345 34.7273 12.451 34.7685 12.4667C34.8007 12.5599 34.8469 12.6836 34.8939 12.8073C34.926 12.8931 34.959 12.9797 34.9854 13.0539C34.9574 13.0522 34.9252 13.053 34.8947 13.0629C34.5071 13.1924 34.1871 13.3854 34.1335 13.4242C33.7747 13.7846 33.411 14.1037 33.3079 14.1936C33.1983 14.2332 32.8915 14.352 32.6688 14.5202C32.5855 14.5821 32.4329 14.6316 32.2845 14.6777C32.0544 14.752 31.816 14.8278 31.694 14.9986C31.4499 15.3408 31.5414 15.6691 31.7072 15.8794L31.4564 16.2059L31.2503 16.3503L30.3942 16.5268L29.8491 16.6183C29.7905 16.6282 29.7394 16.6653 29.7089 16.7156C29.6775 16.7668 29.6709 16.8303 29.6883 16.8863C29.7105 16.9606 29.6792 17.2723 29.6157 17.5956V18.6446C29.6157 18.737 29.6775 18.8187 29.7674 18.8434C29.9843 18.9028 30.7076 19.0991 30.9064 19.0991L30.9954 19.1015C31.2346 19.1114 31.675 19.1287 31.9521 18.8525C32.2119 18.5902 32.6226 18.0228 32.7504 17.8315C32.851 17.6805 32.9888 17.5263 33.3137 17.4175C33.5677 17.3325 33.7022 17.2195 33.7995 17.1362C33.858 17.0859 33.891 17.0595 33.9298 17.0472C34.0419 17.0092 34.4625 16.9309 34.7495 16.8814L35.1734 17.1659C35.1545 17.2179 35.1471 17.2814 35.1726 17.3531C35.2262 17.5049 35.3788 17.6154 35.9644 17.7152V18.0286C35.9644 18.0863 35.9883 18.1416 36.0312 18.1803C36.074 18.2199 36.1326 18.2422 36.1879 18.2339L36.9466 18.1721C37.0241 18.1655 37.0917 18.116 37.1206 18.0434C37.1495 17.9708 37.1355 17.8884 37.0835 17.8298L36.6439 17.3342C36.6167 17.3036 36.5804 17.2822 36.5408 17.2715L35.9074 16.6356L35.8992 16.5449C36.1367 16.6777 36.4344 16.8426 36.5771 16.9127C36.7652 17.0067 37.1437 17.2649 37.2773 17.3573L37.6212 18.1704C37.6286 18.1877 37.6394 18.2051 37.6517 18.2207L38.1466 18.8252C38.2183 18.9135 38.3494 18.9259 38.436 18.8549C38.5243 18.7832 38.5383 18.6545 38.4674 18.5655C38.2703 18.3197 38.2224 18.1572 38.2233 18.1341C38.2233 18.1333 38.2554 18.1102 38.3503 18.1094C38.4987 18.1251 38.9993 18.1704 39.2096 18.0995C39.363 18.0492 39.495 18.0022 39.6475 17.9337C39.5552 18.0434 39.4966 18.191 39.5337 18.3766C39.5915 18.6694 39.7927 19.0331 40.1317 19.4562C40.1836 19.523 40.2339 19.5922 40.2809 19.659C40.4739 19.9287 40.7156 20.2644 41.024 20.0574C41.1073 20.0029 41.2755 19.899 41.4364 19.8009C41.4273 19.9229 41.4281 20.0541 41.4529 20.1737C41.4858 20.332 41.4999 20.5308 41.5065 20.6751C41.1815 20.6965 41.0875 20.7757 41.052 20.8912C41.0397 20.9308 41.0125 21.0668 41.17 21.1732C41.2285 21.212 41.3168 21.3291 41.4001 21.4503C41.2896 21.3266 41.1246 21.2334 40.9399 21.1419C40.817 21.0817 40.6892 21.019 40.6009 20.9522C40.3444 20.7609 39.1717 20.511 38.7593 20.4269C38.4905 20.2627 38.1416 20.1118 37.9363 20.2751C37.4216 20.6842 36.1136 20.4376 35.787 20.3064C35.5347 20.2067 35.4192 20.0788 35.4192 20.0029C35.4192 19.8017 35.1982 19.0751 35.1306 18.8574C35.0992 18.7584 35.0027 18.6958 34.8972 18.7156C34.6704 18.756 34.2638 18.8203 34.1426 18.8203C34.0527 18.8203 33.7632 18.7271 33.5455 18.6405C33.5158 18.6281 33.4836 18.6232 33.4498 18.6265C33.3822 18.6331 32.7859 18.6925 32.5113 18.831C32.2861 18.9448 31.807 19.1246 31.6131 19.1898C31.4927 19.2302 31.1859 19.2755 31.0268 19.2978C30.395 19.0603 29.8969 19.6434 29.6981 20.0368C29.6619 20.1118 29.605 20.177 29.5448 20.2462C29.4384 20.3683 29.3056 20.5217 29.3056 20.7468C29.3056 20.8499 29.0244 21.1543 28.7761 21.3184C28.7415 21.3415 28.6887 21.3736 28.6244 21.4132C28.2269 21.6573 27.8244 21.9188 27.6636 22.1876C27.4945 22.4689 27.2768 22.8804 27.2034 23.2457C27.1382 23.5748 27.1382 23.8395 27.1382 24.2758C27.1382 24.4259 27.1308 24.5529 27.1234 24.6708C27.1094 24.8927 27.097 25.1014 27.1407 25.3644C27.2141 25.8189 27.925 26.8366 28.1106 27.07C28.3802 27.4064 28.6969 27.7825 29.0351 27.9829C29.2891 28.1371 29.6462 28.4332 29.7311 28.505C29.8639 28.6815 30.2103 28.9256 30.6961 28.7425C30.8882 28.6707 31.0886 28.627 31.2816 28.585C31.5719 28.5223 31.8713 28.4563 32.1525 28.2963C32.5772 28.0571 32.8519 27.9714 32.9607 27.9664C32.9698 28.218 33.0704 28.4307 33.242 28.5544C33.4086 28.6749 33.6238 28.7012 33.8506 28.6245C33.91 28.6048 33.976 28.58 34.0436 28.5544C34.1623 28.5099 34.3908 28.4241 34.5054 28.4126C34.4658 28.7177 34.5302 29.0583 34.5813 29.3322C34.6069 29.4682 34.6308 29.5969 34.6308 29.6678C34.6308 29.714 34.6283 29.7594 34.6267 29.8055C34.6159 30.0167 34.6027 30.2806 34.8155 30.4942C34.8774 30.556 34.9722 30.6327 35.0737 30.7136C35.1924 30.8076 35.4134 30.9832 35.439 31.0311C35.439 31.1861 35.491 31.8657 35.646 32.1766C35.792 32.4669 35.8415 32.7283 35.7755 32.8595C35.6468 33.1151 35.4118 33.784 35.3945 33.8409C35.3664 33.9836 35.2807 34.4677 35.3549 34.6854C35.4382 34.9369 35.6303 35.2149 35.9281 35.5109C36.0782 35.661 36.14 35.8309 36.2052 36.0091C36.2555 36.1484 36.3083 36.292 36.4023 36.4165C36.5441 36.607 36.8179 37.1703 36.9177 37.3847L37.2344 37.9571V38.4601C37.2344 38.5212 37.2616 38.5789 37.3078 38.6177C37.3449 38.649 37.3919 38.6663 37.4406 38.6663C37.4521 38.6663 37.4645 38.6655 37.4761 38.663C37.5198 38.6556 38.5391 38.4766 38.7907 38.4131C39.0818 38.3381 39.7704 37.8812 40.036 37.6164C40.1696 37.482 40.2314 37.3624 40.2859 37.2577C40.3436 37.1455 40.3898 37.0581 40.5242 36.9492C40.8343 36.7027 41.3959 36.2697 41.3959 36.2697C41.4504 36.2276 41.4801 36.1608 41.4759 36.0932L41.4215 35.2429L42.1027 34.3332L42.6809 33.7518C42.8475 33.5242 43.2268 32.9609 43.1476 32.6541C43.1072 32.4892 43.0231 31.7445 42.9728 31.2505C43.0553 31.0715 43.2342 30.7053 43.3629 30.5338C43.4412 30.4249 43.4899 30.3136 43.5369 30.2064C43.612 30.0332 43.6837 29.8699 43.8849 29.7025C44.2223 29.4221 44.4631 29.0922 44.6387 28.8522L44.7888 28.6493C44.9876 28.3846 45.2985 27.9705 45.4098 27.804V27.8031C45.5179 27.6423 45.6103 27.3124 45.6886 27.0032C45.7059 26.9487 45.701 26.8869 45.6713 26.8349C45.6276 26.7607 45.5426 26.7211 45.4593 26.7351L44.4787 26.8984C44.2388 26.5215 43.8338 25.9681 43.5014 25.5137C43.2507 25.1715 43.014 24.8473 42.9415 24.7269C42.7815 24.4597 42.6058 23.8973 42.5324 23.6053C42.4887 23.4329 42.351 23.1047 42.2289 22.8144C42.1671 22.666 42.1126 22.5381 42.0912 22.4763C42.0887 22.468 42.0813 22.4565 42.078 22.4474C42.7452 23.4082 43.6054 24.6915 43.6928 24.8655C43.7299 24.9422 43.7464 25.051 43.7645 25.1649C43.7942 25.357 43.8272 25.5756 43.9798 25.7265C44.4425 26.1892 45.2606 25.8131 45.5369 25.63C45.5929 25.5929 45.6903 25.5393 45.8016 25.475C46.148 25.2795 46.4234 25.1187 46.5636 24.9793C46.6865 24.8589 46.6865 24.8589 46.8201 24.7723L47.0263 24.6379C47.3653 24.4111 47.5888 24.2445 47.6118 24.0127C47.6193 23.9336 47.6052 23.8156 47.4906 23.701C47.371 23.5806 47.1071 23.1336 46.9694 22.8812C46.9257 22.8004 46.8341 22.76 46.7434 22.7781C46.3146 22.8738 45.9187 22.6577 45.8783 22.6082C45.8783 22.4837 45.7719 22.2594 45.6333 22.021C45.7612 22.1027 45.8874 22.2082 46.0102 22.3105C46.2849 22.5381 46.5438 22.7542 46.8506 22.7542C47.1385 22.7542 47.2869 22.84 47.644 23.0453L47.738 23.0998C47.9566 23.2226 48.1083 23.367 48.2428 23.4948C48.3632 23.6086 48.477 23.7158 48.6147 23.7859C48.7632 23.8602 49.0287 24.1678 49.1367 24.3022C49.239 24.5389 49.5128 25.1954 49.559 25.3859C49.559 25.3867 49.559 25.3875 49.559 25.3884C49.5912 25.5121 49.6769 25.7125 49.7759 25.9434C49.8196 26.0457 49.8641 26.1504 49.9029 26.2452C49.9351 26.3244 50.011 26.3739 50.0934 26.3739C50.1041 26.3739 50.1157 26.3731 50.1272 26.3714C50.2229 26.3549 50.2938 26.2758 50.2996 26.1801L50.3144 25.9442C50.3334 25.7083 50.3491 25.47 50.3491 25.2308C50.3491 19.4776 47.4222 14.2052 42.5184 11.1257ZM40.0244 17.2723C39.9989 17.1065 39.989 16.9993 40.0525 16.9185C40.2611 16.6612 40.53 16.5507 40.7139 16.4888C40.8805 16.4344 41.3209 16.22 41.4908 16.1358L41.6887 16.1721C41.358 16.4979 41.4149 16.6125 41.4512 16.6868C41.4718 16.728 41.5543 16.8566 41.7646 16.803C41.8933 16.7791 42.3567 16.9845 42.6437 17.2014C42.6982 17.2418 42.6965 17.3441 42.68 17.434C42.4524 17.4117 42.0409 17.3696 41.7448 17.3259C41.2821 17.2632 40.5918 17.3853 40.563 17.3902C40.5407 17.3944 40.5193 17.4026 40.4995 17.4125L39.9906 17.6987C40.069 17.5667 40.0434 17.3977 40.0244 17.2723ZM36.1276 13.5273C36.2126 13.5372 36.2984 13.4827 36.333 13.4003C36.3338 13.3978 36.4534 13.11 36.62 12.8881C36.6827 12.8032 36.7445 12.7124 36.8006 12.6291C36.8856 12.8073 36.9722 12.9953 36.9994 13.0753C37.0167 13.1413 36.9689 13.3887 36.8979 13.6205C36.6192 13.7936 36.2909 13.9718 36.2332 13.985C36.14 13.9553 35.8266 13.7178 35.4934 13.4415C35.6468 13.4778 35.8522 13.5091 36.1276 13.5273Z" fill="#CAD34F"/>
<path d="M34.2935 42.132C34.1797 42.132 34.0873 42.0404 34.0873 41.9258L34.0403 15.9208C34.0403 15.807 34.1318 15.7146 34.2465 15.7146C34.3603 15.7146 34.4526 15.8061 34.4526 15.9208L34.4997 41.9258C34.4997 42.0396 34.4073 42.132 34.2935 42.132Z" fill="#472B29"/>
<path d="M16.8439 25.4873C16.7301 25.4873 16.6377 25.3958 16.6377 25.2812C16.6377 25.1673 16.7292 25.075 16.8439 25.075L46.2236 25.023C46.3374 25.023 46.4298 25.1146 46.4298 25.2292C46.4298 25.343 46.3383 25.4354 46.2236 25.4354L16.8439 25.4873ZM21.5423 37.4119C21.4928 37.4119 21.4441 37.3946 21.4046 37.36C21.3196 37.2833 21.313 37.153 21.3889 37.068C24.5451 33.5473 29.0505 31.5243 33.7481 31.516C33.7572 31.516 33.7663 31.516 33.7753 31.516C38.4647 31.516 42.9652 33.5226 46.128 37.0235C46.2038 37.1084 46.1972 37.2387 46.1131 37.3154C46.0282 37.3905 45.8979 37.3855 45.822 37.3006C42.7375 33.8854 38.3484 31.9284 33.7753 31.9284C33.7663 31.9284 33.758 31.9284 33.7489 31.9284C29.1668 31.9366 24.7744 33.9102 21.6957 37.3435C21.6553 37.3888 21.5992 37.4119 21.5423 37.4119ZM33.697 18.9861C29.0093 18.9861 24.5096 16.9795 21.3468 13.4786C21.271 13.3937 21.2776 13.2634 21.3617 13.1867C21.4458 13.1108 21.5761 13.1157 21.6528 13.2015C24.7381 16.6167 29.1264 18.5737 33.697 18.5737C33.7069 18.5737 33.7168 18.5737 33.7267 18.5737C38.308 18.5655 42.7013 16.5919 45.7799 13.1595C45.8566 13.0745 45.9861 13.0696 46.0711 13.143C46.156 13.2197 46.1626 13.35 46.0867 13.4349C42.9297 16.9548 38.4251 18.9778 33.7275 18.9861C33.7168 18.9861 33.7061 18.9861 33.697 18.9861Z" fill="#472B29"/>
<path d="M34.4923 42.323C34.4304 42.323 34.3694 42.2958 34.329 42.2422C34.2597 42.1523 34.277 42.022 34.3669 41.9527C39.9338 37.6839 43.1205 31.614 43.1098 25.2967C43.099 18.9793 39.8901 12.9201 34.3067 8.67367C34.216 8.6044 34.1987 8.47574 34.268 8.3842C34.3364 8.2943 34.4659 8.27616 34.5566 8.34461C40.2431 12.6703 43.5106 18.849 43.5221 25.2967C43.5337 31.7427 40.2884 37.933 34.6185 42.2801C34.5805 42.3098 34.536 42.323 34.4923 42.323ZM33.7822 42.2603C33.7385 42.2603 33.6948 42.2463 33.6577 42.2183C27.9712 37.8926 24.7037 31.7138 24.6922 25.2662C24.6806 18.8202 27.9259 12.6298 33.5966 8.28358C33.6849 8.21348 33.816 8.23245 33.8853 8.32152C33.9546 8.41141 33.9373 8.54172 33.8474 8.61099C28.2797 12.8789 25.093 18.9488 25.1045 25.2662C25.1161 31.5827 28.3242 37.6419 33.9076 41.8892C33.9983 41.9585 34.0156 42.0871 33.9463 42.1787C33.9059 42.2323 33.8441 42.2603 33.7822 42.2603ZM48.7558 25.653C48.755 25.653 48.7541 25.653 48.7533 25.653L47.7133 25.6406C47.5995 25.6389 47.508 25.5458 47.5096 25.4319C47.5105 25.319 47.6028 25.2282 47.7158 25.2282C47.7166 25.2282 47.7175 25.2282 47.7183 25.2282L48.7583 25.2406C48.8721 25.2423 48.9636 25.3354 48.962 25.4493C48.9603 25.5622 48.8688 25.653 48.7558 25.653Z" fill="#472B29"/>
<path d="M34.1674 14.4088C34.1666 14.4088 34.1657 14.4088 34.1649 14.4088C34.0511 14.4071 33.9596 14.3148 33.9612 14.2001L33.9802 12.4674C33.981 12.3544 34.0734 12.2637 34.1864 12.2637C34.1872 12.2637 34.188 12.2637 34.1888 12.2637C34.3026 12.2653 34.3942 12.3577 34.3925 12.4723L34.3736 14.2051C34.3719 14.3172 34.2804 14.4088 34.1674 14.4088ZM34.235 11.3755C34.2342 11.3755 34.2342 11.3755 34.2334 11.3755C34.1195 11.3746 34.028 11.2814 34.0288 11.1668L34.033 10.7338C34.0338 10.62 34.127 10.507 34.2408 10.5301C34.3546 10.531 34.4461 10.6241 34.4453 10.7388L34.4412 11.1718C34.4404 11.2847 34.348 11.3755 34.235 11.3755Z" fill="#472B29"/>
<path d="M56.0728 14.3156C56.0728 12.1054 55.1599 10.1112 53.6943 8.68032C53.5517 8.53682 53.3991 8.40157 53.2424 8.26961C53.2267 8.25642 53.2127 8.2424 53.197 8.23003C53.0395 8.10054 52.8746 7.97849 52.7039 7.86138C52.6577 7.82921 52.6123 7.79375 52.5653 7.76241C52.4935 7.7154 52.4185 7.67334 52.3451 7.62881C51.1385 6.87831 49.7192 6.35132 48.1935 6.35132C48.1531 6.35132 47.9823 6.36039 48.0021 6.36121C43.74 6.4643 40.3149 9.98668 40.3149 14.2736C40.3149 18.8978 48.2718 27.9433 48.2718 27.9433C48.2718 27.9433 56.0728 18.9629 56.0728 14.3156Z" fill="#EE3E54"/>
<path d="M48.2726 28.2929C48.172 28.2929 48.0763 28.2492 48.0095 28.1734C47.6813 27.8006 39.9661 18.9745 39.9661 14.2727C39.9661 9.82339 43.5676 6.11711 47.9947 6.0099V6.01072C48.0689 6 48.1407 6 48.1951 6C49.6532 6 51.1121 6.44782 52.5315 7.33027C52.6461 7.3979 52.703 7.43253 52.7583 7.46882L52.8589 7.53975C53.0824 7.69562 53.2564 7.82428 53.4213 7.95953C53.6333 8.14014 53.7925 8.28282 53.9426 8.43292C55.5409 9.99328 56.4233 12.0831 56.4233 14.3156C56.4233 19.0396 48.859 27.8014 48.5374 28.1717C48.4706 28.2484 48.3749 28.2921 48.2743 28.2921H48.2726V28.2929ZM48.0442 6.70843C48.0335 6.71008 48.0219 6.71091 48.0112 6.71091C43.961 6.80905 40.6662 10.2011 40.6662 14.2727C40.6662 18.2421 46.8978 25.7891 48.271 27.4031C49.6235 25.7916 55.7231 18.3048 55.7231 14.3165C55.7231 12.2745 54.9157 10.3619 53.4502 8.93187C53.3117 8.79249 53.1665 8.66466 53.018 8.53848C52.8267 8.37766 52.6684 8.2622 52.5067 8.15004L52.2321 7.96778C50.8548 7.11337 49.5204 6.70101 48.1951 6.70101C48.1662 6.70101 48.0788 6.70596 48.0442 6.70843Z" fill="#472B29"/>
<path d="M48.194 9.81763C47.1511 9.81763 46.1509 10.2319 45.4134 10.9694C44.676 11.7068 44.2617 12.707 44.2617 13.7499C44.2617 14.7928 44.676 15.793 45.4134 16.5304C46.1509 17.2678 47.1511 17.6821 48.194 17.6821C49.2369 17.6821 50.2371 17.2678 50.9745 16.5304C51.7119 15.793 52.1262 14.7928 52.1262 13.7499C52.1262 12.707 51.7119 11.7068 50.9745 10.9694C50.2371 10.2319 49.2369 9.81763 48.194 9.81763Z" fill="#D6213F"/>
<path d="M48.1942 17.9912C45.8553 17.9912 43.9526 16.0886 43.9526 13.7497C43.9526 11.4108 45.8553 9.50732 48.1942 9.50732C50.5331 9.50732 52.4357 11.4108 52.4357 13.7497C52.4357 16.0886 50.5331 17.9912 48.1942 17.9912ZM48.1942 10.1267C46.1967 10.1267 44.5712 11.7522 44.5712 13.7505C44.5712 15.748 46.1967 17.3735 48.1942 17.3735C50.1916 17.3735 51.8171 15.748 51.8171 13.7505C51.8171 11.7522 50.1925 10.1267 48.1942 10.1267Z" fill="#472B29"/>
<path d="M48.1941 11.4653C47.5883 11.4653 47.0072 11.706 46.5788 12.1344C46.1504 12.5629 45.9097 13.1439 45.9097 13.7498C45.9097 14.3557 46.1504 14.9367 46.5788 15.3652C47.0072 15.7936 47.5883 16.0343 48.1941 16.0343C48.8 16.0343 49.3811 15.7936 49.8095 15.3652C50.2379 14.9367 50.4786 14.3557 50.4786 13.7498C50.4786 13.1439 50.2379 12.5629 49.8095 12.1344C49.3811 11.706 48.8 11.4653 48.1941 11.4653Z" fill="#FDFCEE"/>
<path d="M48.194 16.2404C46.8209 16.2404 45.7034 15.1238 45.7034 13.7498C45.7034 12.3758 46.8209 11.2583 48.194 11.2583C49.5672 11.2583 50.6847 12.3758 50.6847 13.7498C50.6847 15.1238 49.5672 16.2404 48.194 16.2404ZM48.194 11.6715C47.0477 11.6715 46.1157 12.6042 46.1157 13.7506C46.1157 14.897 47.0477 15.8289 48.194 15.8289C49.3404 15.8289 50.2723 14.897 50.2723 13.7506C50.2723 12.6042 49.3404 11.6715 48.194 11.6715Z" fill="#472B29"/>
<path d="M32.8139 13.5396L32.15 12.7454L31.7888 12.0443C31.7591 11.9866 31.7038 11.9462 31.6403 11.9355C31.576 11.9206 31.5108 11.9429 31.4638 11.9883L31.1265 12.3058C31.0853 12.3445 31.0614 12.3981 31.0614 12.4559V13.3227L30.4577 13.1519C30.3571 13.1214 30.254 13.1726 30.2127 13.2674L29.9604 13.8414C29.9323 13.9049 29.9389 13.9791 29.9769 14.0369L30.2284 14.4204C30.2597 14.469 30.31 14.502 30.367 14.5111C30.3785 14.5127 30.3892 14.5136 30.4008 14.5136C30.4461 14.5136 30.4907 14.4979 30.5278 14.4698L31.0605 14.0542V14.3074C31.0605 14.3701 31.0894 14.4294 31.1381 14.4682C31.1875 14.5078 31.2502 14.5234 31.3129 14.5078L32.4221 14.2521C32.4708 14.2414 32.5129 14.2134 32.5426 14.1729L32.8213 13.7911C32.8774 13.716 32.8741 13.6121 32.8139 13.5396Z" fill="#CAD34F"/>
</svg>
