<svg width="72" height="48" viewBox="0 0 72 48" fill="none" xmlns="http://www.w3.org/2000/svg">
<path d="M61.8591 18.9511V15.9681C61.8591 13.7831 60.0711 11.9951 57.8861 11.9951H14.7311C12.5461 11.9951 10.7581 13.7831 10.7581 15.9681V18.9581C12.1231 18.9971 13.2191 20.1101 13.2191 21.4841C13.2191 22.8581 12.1231 23.9711 10.7581 24.0101V32.9201C10.7581 35.1051 12.5461 36.8931 14.7311 36.8931H26.9711V30.5241C26.9711 29.7281 27.6221 29.0761 28.4191 29.0761C29.2151 29.0761 29.8671 29.7271 29.8671 30.5241V36.8931H57.8861C60.0711 36.8931 61.8591 35.1051 61.8591 32.9201V24.0171C60.4601 24.0171 59.3261 22.8831 59.3261 21.4841C59.3261 20.0851 60.4601 18.9511 61.8591 18.9511Z" fill="#88AE45"/>
<path d="M57.8861 37.5939H29.8661C29.4791 37.5939 29.1661 37.2809 29.1661 36.8939V30.5249C29.1661 30.1129 28.8311 29.7769 28.4181 29.7769C28.0051 29.7769 27.6711 30.1129 27.6711 30.5249V36.8939C27.6711 37.2809 27.3581 37.5939 26.9711 37.5939H14.7311C12.1541 37.5939 10.0581 35.4969 10.0581 32.9199V24.0099C10.0581 23.6309 10.3601 23.3219 10.7381 23.3099C11.7371 23.2819 12.5191 22.4799 12.5191 21.4839C12.5191 20.4889 11.7371 19.6869 10.7381 19.6569C10.3601 19.6459 10.0581 19.3369 10.0581 18.9579V15.9689C10.0581 13.3919 12.1551 11.2949 14.7311 11.2949H57.8861C60.4631 11.2949 62.5591 13.3919 62.5591 15.9689V18.9509C62.5591 19.3379 62.2461 19.6509 61.8591 19.6509C60.8481 19.6509 60.0261 20.4729 60.0261 21.4839C60.0261 22.4949 60.8481 23.3169 61.8591 23.3169C62.2461 23.3169 62.5591 23.6299 62.5591 24.0169V32.9199C62.5591 35.4979 60.4631 37.5939 57.8861 37.5939ZM30.5671 36.1939H57.8861C59.6911 36.1939 61.1591 34.7249 61.1591 32.9209V24.6419C59.7121 24.3209 58.6261 23.0279 58.6261 21.4849C58.6261 19.9419 59.7121 18.6489 61.1591 18.3279V15.9699C61.1591 14.1649 59.6911 12.6969 57.8861 12.6969H14.7311C12.9261 12.6969 11.4581 14.1659 11.4581 15.9699V18.3499C12.8821 18.6939 13.9191 19.9619 13.9191 21.4859C13.9191 23.0099 12.8811 24.2789 11.4581 24.6219V32.9229C11.4581 34.7279 12.9261 36.1959 14.7311 36.1959H26.2711V30.5269C26.2711 29.3419 27.2341 28.3789 28.4181 28.3789C29.6021 28.3789 30.5661 29.3429 30.5661 30.5269V36.1939H30.5671Z" fill="#472B29"/>
<path d="M13.8459 29.9771H26.9709V36.8931H13.8459V29.9771Z" fill="#FBCD59"/>
<path d="M26.9719 37.269H13.8459C13.6389 37.269 13.4709 37.1011 13.4709 36.8941V29.9771C13.4709 29.7701 13.6389 29.6021 13.8459 29.6021H26.9709C27.1779 29.6021 27.3459 29.7701 27.3459 29.9771V36.8941C27.3469 37.1011 27.1789 37.269 26.9719 37.269ZM14.2209 36.5191H26.5959V30.3521H14.2209V36.5191Z" fill="#472B29"/>
<path d="M30.0591 29.978H58.1651V36.894H30.0591V29.978Z" fill="#FBCD59"/>
<path d="M58.165 37.269H30.059C29.852 37.269 29.684 37.101 29.684 36.894V29.978C29.684 29.771 29.852 29.603 30.059 29.603H58.165C58.372 29.603 58.54 29.771 58.54 29.978V36.894C58.54 37.101 58.372 37.269 58.165 37.269ZM30.434 36.519H57.79V30.353H30.434V36.519ZM15.197 36.935C15.059 36.935 14.947 36.823 14.947 36.685V31.232C14.947 31.094 15.059 30.982 15.197 30.982C15.335 30.982 15.447 31.094 15.447 31.232V36.685C15.447 36.823 15.335 36.935 15.197 36.935ZM17.166 36.935C17.028 36.935 16.916 36.823 16.916 36.685V31.232C16.916 31.094 17.028 30.982 17.166 30.982C17.304 30.982 17.416 31.094 17.416 31.232V36.685C17.416 36.823 17.304 36.935 17.166 36.935ZM19.134 36.935C18.996 36.935 18.884 36.823 18.884 36.685V31.232C18.884 31.094 18.996 30.982 19.134 30.982C19.272 30.982 19.384 31.094 19.384 31.232V36.685C19.384 36.823 19.272 36.935 19.134 36.935ZM21.103 36.935C20.965 36.935 20.853 36.823 20.853 36.685V31.232C20.853 31.094 20.965 30.982 21.103 30.982C21.241 30.982 21.353 31.094 21.353 31.232V36.685C21.353 36.823 21.241 36.935 21.103 36.935ZM23.071 36.935C22.933 36.935 22.821 36.823 22.821 36.685V31.232C22.821 31.094 22.933 30.982 23.071 30.982C23.209 30.982 23.321 31.094 23.321 31.232V36.685C23.321 36.823 23.209 36.935 23.071 36.935ZM25.04 36.935C24.902 36.935 24.79 36.823 24.79 36.685V31.232C24.79 31.094 24.902 30.982 25.04 30.982C25.178 30.982 25.29 31.094 25.29 31.232V36.685C25.29 36.823 25.178 36.935 25.04 36.935Z" fill="#472B29"/>
<path d="M31.991 36.9359C31.853 36.9359 31.741 36.8239 31.741 36.6859V31.2329C31.741 31.0949 31.853 30.9829 31.991 30.9829C32.129 30.9829 32.241 31.0949 32.241 31.2329V36.6859C32.241 36.8239 32.129 36.9359 31.991 36.9359ZM34.017 36.9359C33.879 36.9359 33.767 36.8239 33.767 36.6859V31.2329C33.767 31.0949 33.879 30.9829 34.017 30.9829C34.155 30.9829 34.267 31.0949 34.267 31.2329V36.6859C34.267 36.8239 34.156 36.9359 34.017 36.9359ZM36.044 36.9359C35.906 36.9359 35.794 36.8239 35.794 36.6859V31.2329C35.794 31.0949 35.906 30.9829 36.044 30.9829C36.182 30.9829 36.294 31.0949 36.294 31.2329V36.6859C36.294 36.8239 36.182 36.9359 36.044 36.9359ZM38.071 36.9359C37.933 36.9359 37.821 36.8239 37.821 36.6859V31.2329C37.821 31.0949 37.933 30.9829 38.071 30.9829C38.209 30.9829 38.321 31.0949 38.321 31.2329V36.6859C38.321 36.8239 38.209 36.9359 38.071 36.9359ZM40.098 36.9359C39.96 36.9359 39.848 36.8239 39.848 36.6859V31.2329C39.848 31.0949 39.96 30.9829 40.098 30.9829C40.236 30.9829 40.348 31.0949 40.348 31.2329V36.6859C40.348 36.8239 40.236 36.9359 40.098 36.9359ZM42.124 36.9359C41.986 36.9359 41.874 36.8239 41.874 36.6859V31.2329C41.874 31.0949 41.986 30.9829 42.124 30.9829C42.262 30.9829 42.374 31.0949 42.374 31.2329V36.6859C42.374 36.8239 42.263 36.9359 42.124 36.9359ZM44.151 36.9359C44.013 36.9359 43.901 36.8239 43.901 36.6859V31.2329C43.901 31.0949 44.013 30.9829 44.151 30.9829C44.289 30.9829 44.401 31.0949 44.401 31.2329V36.6859C44.401 36.8239 44.289 36.9359 44.151 36.9359ZM46.178 36.9359C46.04 36.9359 45.928 36.8239 45.928 36.6859V31.2329C45.928 31.0949 46.04 30.9829 46.178 30.9829C46.316 30.9829 46.428 31.0949 46.428 31.2329V36.6859C46.428 36.8239 46.316 36.9359 46.178 36.9359ZM48.205 36.9359C48.067 36.9359 47.955 36.8239 47.955 36.6859V31.2329C47.955 31.0949 48.067 30.9829 48.205 30.9829C48.343 30.9829 48.455 31.0949 48.455 31.2329V36.6859C48.455 36.8239 48.343 36.9359 48.205 36.9359ZM50.232 36.9359C50.094 36.9359 49.982 36.8239 49.982 36.6859V31.2329C49.982 31.0949 50.094 30.9829 50.232 30.9829C50.37 30.9829 50.482 31.0949 50.482 31.2329V36.6859C50.482 36.8239 50.37 36.9359 50.232 36.9359ZM52.259 36.9359C52.121 36.9359 52.009 36.8239 52.009 36.6859V31.2329C52.009 31.0949 52.121 30.9829 52.259 30.9829C52.397 30.9829 52.509 31.0949 52.509 31.2329V36.6859C52.509 36.8239 52.397 36.9359 52.259 36.9359ZM54.285 36.9359C54.147 36.9359 54.035 36.8239 54.035 36.6859V31.2329C54.035 31.0949 54.147 30.9829 54.285 30.9829C54.423 30.9829 54.535 31.0949 54.535 31.2329V36.6859C54.535 36.8239 54.423 36.9359 54.285 36.9359ZM56.312 36.9359C56.174 36.9359 56.062 36.8239 56.062 36.6859V31.2329C56.062 31.0949 56.174 30.9829 56.312 30.9829C56.45 30.9829 56.562 31.0949 56.562 31.2329V36.6859C56.562 36.8239 56.45 36.9359 56.312 36.9359Z" fill="#472B29"/>
<path d="M24.639 24.7729C24.639 26.0429 23.6 27.0819 22.33 27.0819H18.953C17.683 27.0819 16.644 26.0429 16.644 24.7729V18.0019C16.644 16.7319 17.683 15.6929 18.953 15.6929H22.33C23.6 15.6929 24.639 16.7319 24.639 18.0019V23.1729" fill="#6F913D"/>
<path d="M22.331 27.4569H18.954C17.475 27.4569 16.27 26.2529 16.27 24.7729V18.0019C16.27 16.5229 17.474 15.3179 18.954 15.3179H22.331C23.811 15.3179 25.015 16.5219 25.015 18.0019V23.1729C25.015 23.3799 24.847 23.5479 24.64 23.5479C24.433 23.5479 24.265 23.3799 24.265 23.1729V18.0019C24.265 16.9359 23.398 16.0679 22.331 16.0679H18.954C17.888 16.0679 17.02 16.9349 17.02 18.0019V24.7729C17.02 25.8389 17.887 26.7069 18.954 26.7069H22.331C23.397 26.7069 24.265 25.8399 24.265 24.7729C24.265 24.5659 24.433 24.3979 24.64 24.3979C24.847 24.3979 25.015 24.5659 25.015 24.7729C25.015 26.2519 23.811 27.4569 22.331 27.4569Z" fill="#472B29"/>
<path d="M39.8342 27.0821H37.3542C35.8382 27.0821 34.5972 25.8411 34.5972 24.3251V18.4511C34.5972 16.9351 35.8382 15.6941 37.3542 15.6941H39.8342C41.3502 15.6941 42.5912 16.9351 42.5912 18.4511V24.3251C42.5912 25.8411 41.3502 27.0821 39.8342 27.0821Z" fill="#6F913D"/>
<path d="M39.8329 27.4571H37.3529C35.6259 27.4571 34.2209 26.0521 34.2209 24.3251V18.4511C34.2209 16.7241 35.6259 15.3191 37.3529 15.3191H39.8329C41.5599 15.3191 42.9649 16.7241 42.9649 18.4511V24.3251C42.9659 26.0511 41.5599 27.4571 39.8329 27.4571ZM37.3529 16.0691C36.0399 16.0691 34.9709 17.1371 34.9709 18.4511V24.3251C34.9709 25.6381 36.0399 26.7071 37.3529 26.7071H39.8329C41.1459 26.7071 42.2149 25.6391 42.2149 24.3251V18.4511C42.2149 17.1381 41.1459 16.0691 39.8329 16.0691H37.3529Z" fill="#472B29"/>
<path d="M54.172 24.7729C54.172 26.0429 53.133 27.0819 51.863 27.0819H48.486C47.216 27.0819 46.177 26.0429 46.177 24.7729V18.0019C46.177 16.7319 47.216 15.6929 48.486 15.6929H51.863C53.133 15.6929 54.172 16.7319 54.172 18.0019" fill="#6F913D"/>
<path d="M51.864 27.4569H48.487C47.007 27.4569 45.803 26.2529 45.803 24.7729V18.0019C45.803 16.5229 47.007 15.3179 48.487 15.3179H51.864C53.344 15.3179 54.548 16.5219 54.548 18.0019C54.548 18.2089 54.38 18.3769 54.173 18.3769C53.966 18.3769 53.798 18.2089 53.798 18.0019C53.798 16.9359 52.931 16.0679 51.864 16.0679H48.487C47.421 16.0679 46.553 16.9349 46.553 18.0019V24.7729C46.553 25.8389 47.42 26.7069 48.487 26.7069H51.864C52.93 26.7069 53.798 25.8399 53.798 24.7729C53.798 24.5659 53.966 24.3979 54.173 24.3979C54.38 24.3979 54.548 24.5659 54.548 24.7729C54.547 26.2519 53.344 27.4569 51.864 27.4569Z" fill="#472B29"/>
<path d="M54.1719 22.4889C53.9649 22.4889 53.7969 22.3209 53.7969 22.1139V19.0859C53.7969 18.8789 53.9649 18.7109 54.1719 18.7109C54.3789 18.7109 54.5469 18.8789 54.5469 19.0859V22.1139C54.5469 22.3209 54.3789 22.4889 54.1719 22.4889Z" fill="#472B29"/>
</svg>
