<svg width="232" height="232" viewBox="0 0 232 232" fill="none" xmlns="http://www.w3.org/2000/svg">
<path d="M84.6981 207.389H56.6758C55.895 207.389 55.2612 206.755 55.2612 205.974C55.2612 205.193 55.895 204.56 56.6758 204.56H84.6981C85.479 204.56 86.1127 205.193 86.1127 205.974C86.1127 206.755 85.4818 207.389 84.6981 207.389ZM93.4542 207.389H90.6251C89.8443 207.389 89.2106 206.755 89.2106 205.974C89.2106 205.193 89.8443 204.56 90.6251 204.56H93.4542C94.2351 204.56 94.8688 205.193 94.8688 205.974C94.8688 206.755 94.2379 207.389 93.4542 207.389ZM107.574 213.047H82.1378C81.3569 213.047 80.7232 212.413 80.7232 211.632C80.7232 210.852 81.3569 210.218 82.1378 210.218H107.574C108.355 210.218 108.989 210.852 108.989 211.632C108.989 212.413 108.355 213.047 107.574 213.047ZM76.4796 213.047H73.6505C72.8696 213.047 72.2359 212.413 72.2359 211.632C72.2359 210.852 72.8696 210.218 73.6505 210.218H76.4796C77.2604 210.218 77.8941 210.852 77.8941 211.632C77.8941 212.413 77.2632 213.047 76.4796 213.047ZM67.9922 213.047H62.334C61.5532 213.047 60.9195 212.413 60.9195 211.632C60.9195 210.852 61.5532 210.218 62.334 210.218H67.9922C68.7731 210.218 69.4068 210.852 69.4068 211.632C69.4068 212.413 68.7759 213.047 67.9922 213.047ZM84.9669 218.705H79.3087C78.5278 218.705 77.8941 218.071 77.8941 217.291C77.8941 216.51 78.5278 215.876 79.3087 215.876H84.9669C85.7477 215.876 86.3815 216.51 86.3815 217.291C86.3815 218.071 85.7477 218.705 84.9669 218.705ZM93.4542 193.243C92.9535 193.243 91.1259 193.243 90.6251 193.243C89.8443 193.243 89.2106 193.877 89.2106 194.658C89.2106 195.439 89.8443 196.072 90.6251 196.072C91.1259 196.072 92.9535 196.072 93.4542 196.072C94.2351 196.072 94.8688 195.439 94.8688 194.658C94.8688 193.877 94.2351 193.243 93.4542 193.243ZM93.4542 198.901C92.9535 198.901 79.8094 198.901 79.3087 198.901C78.5278 198.901 77.8941 199.535 77.8941 200.316C77.8941 201.097 78.5278 201.731 79.3087 201.731C79.8094 201.731 92.9535 201.731 93.4542 201.731C94.2351 201.731 94.8688 201.097 94.8688 200.316C94.8688 199.535 94.2351 198.901 93.4542 198.901ZM107.6 204.56C107.099 204.56 99.6132 204.56 99.1124 204.56C98.3316 204.56 97.6979 205.193 97.6979 205.974C97.6979 206.755 98.3316 207.389 99.1124 207.389C99.6132 207.389 107.099 207.389 107.6 207.389C108.381 207.389 109.014 206.755 109.014 205.974C109.014 205.193 108.381 204.56 107.6 204.56ZM172.669 43.3003H144.378C143.597 43.3003 142.964 42.6666 142.964 41.8858C142.964 41.1049 143.597 40.4712 144.378 40.4712H172.669C173.45 40.4712 174.084 41.1049 174.084 41.8858C174.084 42.6666 173.45 43.3003 172.669 43.3003ZM183.986 43.3003H178.328C177.547 43.3003 176.913 42.6666 176.913 41.8858C176.913 41.1049 177.547 40.4712 178.328 40.4712H183.986C184.767 40.4712 185.4 41.1049 185.4 41.8858C185.4 42.6666 184.767 43.3003 183.986 43.3003ZM198.131 48.9585H169.84C169.059 48.9585 168.426 48.3248 168.426 47.544C168.426 46.7632 169.059 46.1294 169.84 46.1294H198.131C198.912 46.1294 199.546 46.7632 199.546 47.544C199.546 48.3248 198.915 48.9585 198.131 48.9585ZM164.182 48.9585H161.353C160.572 48.9585 159.938 48.3248 159.938 47.544C159.938 46.7632 160.572 46.1294 161.353 46.1294H164.182C164.963 46.1294 165.597 46.7632 165.597 47.544C165.597 48.3248 164.963 48.9585 164.182 48.9585ZM155.341 48.9585H150.036C149.256 48.9585 148.622 48.3248 148.622 47.544C148.622 46.7632 149.256 46.1294 150.036 46.1294H155.341C156.122 46.1294 156.756 46.7632 156.756 47.544C156.756 48.3248 156.122 48.9585 155.341 48.9585ZM181.157 37.6421H167.011C166.23 37.6421 165.597 37.0084 165.597 36.2275C165.597 35.4467 166.23 34.813 167.011 34.813H181.157C181.938 34.813 182.571 35.4467 182.571 36.2275C182.571 37.0084 181.94 37.6421 181.157 37.6421ZM172.669 54.6168H167.011C166.23 54.6168 165.597 53.983 165.597 53.2022C165.597 52.4214 166.23 51.7877 167.011 51.7877H172.669C173.45 51.7877 174.084 52.4214 174.084 53.2022C174.084 53.983 173.45 54.6168 172.669 54.6168Z" fill="white"/>
<path d="M64.3734 162.972C58.8821 162.972 54.4121 158.504 54.4121 153.01V97.6786C54.4121 92.1873 58.8793 87.7173 64.3734 87.7173H145.17C150.661 87.7173 155.131 92.1844 155.131 97.6786V153.013C155.131 158.504 150.664 162.974 145.17 162.974H64.3734V162.972Z" fill="#FFFEF4"/>
<path d="M145.167 89.6976C149.567 89.6976 153.148 93.2764 153.148 97.6785V153.013C153.148 157.412 149.569 160.994 145.167 160.994H64.3736C59.9743 160.994 56.3926 157.415 56.3926 153.013V97.6785C56.3926 93.2792 59.9715 89.6976 64.3736 89.6976H145.167ZM145.167 85.7368H64.3736C57.7789 85.7368 52.4319 91.0838 52.4319 97.6785V153.013C52.4319 159.605 57.7789 164.952 64.3736 164.952H145.167C151.762 164.952 157.109 159.605 157.109 153.01V97.6785C157.109 91.0838 151.762 85.7368 145.167 85.7368Z" fill="#472B29"/>
<path d="M139.719 150.806H67.3075C64.8773 150.806 62.9082 148.837 62.9082 146.407V100.717C62.9082 98.2867 64.8773 96.3176 67.3075 96.3176H139.719C142.149 96.3176 144.118 98.2867 144.118 100.717V146.407C144.115 148.837 142.146 150.806 139.719 150.806Z" fill="#C2ADFF"/>
<path d="M94.8686 98.1001H87.148C86.3671 98.1001 85.7334 97.4664 85.7334 96.6856C85.7334 95.9047 86.3671 95.271 87.148 95.271H94.8686C95.6494 95.271 96.2831 95.9047 96.2831 96.6856C96.2831 97.4664 95.6494 98.1001 94.8686 98.1001Z" fill="#472B29"/>
<path d="M62.9111 107.993C62.1303 107.993 61.4966 107.36 61.4966 106.579V100.468C61.4966 97.4013 63.9919 94.906 67.0586 94.906H81.4644C82.2453 94.906 82.879 95.5397 82.879 96.3206C82.879 97.1014 82.2453 97.7351 81.4644 97.7351H67.0586C65.5507 97.7351 64.3257 98.963 64.3257 100.468V106.579C64.3257 107.363 63.692 107.993 62.9111 107.993Z" fill="#472B29"/>
<path d="M142.454 151.437H67.1915C64.0512 151.437 61.4937 148.741 61.4937 145.425V114.704C61.4937 113.923 62.1274 113.29 62.9082 113.29C63.689 113.29 64.3228 113.923 64.3228 114.704V145.423C64.3228 147.177 65.61 148.605 67.1915 148.605H142.454C144.036 148.605 145.323 147.177 145.323 145.423V100.915C145.323 99.161 144.036 97.7351 142.454 97.7351H102.12C101.339 97.7351 100.705 97.1014 100.705 96.3206C100.705 95.5397 101.339 94.906 102.12 94.906H142.454C145.595 94.906 148.152 97.6022 148.152 100.915V145.423C148.149 148.741 145.595 151.437 142.454 151.437Z" fill="#472B29"/>
<path d="M94.515 73.0058C94.515 73.0058 104.813 73.0058 111.843 73.0058C118.874 73.0058 124.574 67.3051 124.574 60.2748C124.574 53.6745 119.533 48.3105 113.102 47.6711C113.164 47.159 113.258 46.6583 113.258 46.1292C113.258 39.0989 107.557 33.3982 100.527 33.3982C96.4586 33.3982 92.8798 35.339 90.5486 38.3096C90.1525 30.852 84.036 24.9109 76.4794 24.9109C68.6682 24.9109 62.3338 31.2453 62.3338 39.0564C62.3338 40.3182 62.5517 41.5178 62.8629 42.6834C61.0466 40.4851 58.3335 39.0564 55.2611 39.0564C50.2224 39.0564 46.1117 42.8333 45.4865 47.6994C44.9744 47.6371 44.4737 47.5438 43.9446 47.5438C36.9143 47.5438 31.2136 53.2444 31.2136 60.2748C31.2136 67.3051 36.9143 73.0058 43.9446 73.0058C50.975 73.0058 70.8212 73.0058 70.8212 73.0058H86.0276V74.4203H94.515V73.0058Z" fill="#FDFCEF"/>
<path d="M76.4794 23.4963C67.8987 23.4963 60.9193 30.4758 60.9193 39.0564C60.9193 39.1017 60.9193 39.1442 60.9193 39.1894C59.2162 38.1851 57.2697 37.6419 55.2611 37.6419C50.081 37.6419 45.611 41.2094 44.3464 46.1434C44.2134 46.1349 44.0804 46.1292 43.9446 46.1292C36.1448 46.1292 29.7991 52.4749 29.7991 60.2748C29.7991 68.0746 36.1448 74.4203 43.9446 74.4203H86.0277C86.8085 74.4203 87.4422 73.7866 87.4422 73.0058C87.4422 72.2249 86.8085 71.5912 86.0277 71.5912H43.9446C37.7036 71.5912 32.6282 66.5158 32.6282 60.2748C32.6282 54.0338 37.7036 48.9583 43.9446 48.9583C44.2756 48.9583 44.5953 49.0064 44.915 49.0489L45.3139 49.1026C45.3733 49.1111 45.4299 49.1139 45.4893 49.1139C46.1853 49.1139 46.7964 48.5906 46.8897 47.8776C47.4301 43.6538 51.0287 40.471 55.2611 40.471C57.7648 40.471 60.1356 41.6055 61.7709 43.583C62.0481 43.9169 62.4527 44.0979 62.8629 44.0979C63.0836 44.0979 63.3042 44.047 63.5079 43.9395C64.0992 43.6368 64.3963 42.9606 64.2265 42.3184C63.9012 41.0877 63.7484 40.0523 63.7484 39.0564C63.7484 32.0374 69.4604 26.3254 76.4794 26.3254C83.2155 26.3254 88.7775 31.6215 89.1368 38.386C89.168 38.9744 89.5612 39.4808 90.1242 39.659C90.2657 39.7043 90.4099 39.7269 90.5542 39.7269C90.9786 39.7269 91.3917 39.5317 91.6632 39.1838C93.8445 36.4056 97.0725 34.8128 100.527 34.8128C106.768 34.8128 111.843 39.8882 111.843 46.1292C111.843 46.4602 111.795 46.7799 111.753 47.0996L111.699 47.4985C111.654 47.8776 111.761 48.2567 111.999 48.5538C112.237 48.8508 112.585 49.0404 112.961 49.0772C118.777 49.6571 123.16 54.4723 123.16 60.2748C123.16 66.5158 118.084 71.5912 111.843 71.5912H94.515C93.7342 71.5912 93.1004 72.2249 93.1004 73.0058C93.1004 73.7866 93.7342 74.4203 94.515 74.4203H111.843C119.643 74.4203 125.989 68.0746 125.989 60.2748C125.989 53.4934 121.21 47.7899 114.664 46.4772C114.67 46.3612 114.672 46.2452 114.672 46.1292C114.672 38.3294 108.327 31.9837 100.527 31.9837C97.1998 31.9837 94.0397 33.1606 91.5218 35.2768C89.83 28.4756 83.7078 23.4963 76.4794 23.4963Z" fill="#472B29"/>
<path d="M72.2357 43.3C68.2665 43.3 64.8546 46.1263 63.9945 49.923C62.9562 49.2949 61.7708 48.9583 60.5656 48.9583C57.165 48.9583 54.3473 51.496 53.9087 54.8089C53.3344 54.6787 52.7884 54.6165 52.2537 54.6165C47.928 54.6165 44.3011 58.0114 43.9984 62.3456C43.9729 62.7361 44.2671 63.0755 44.6547 63.1038C44.6717 63.1038 44.6887 63.1038 44.7056 63.1038C45.0734 63.1038 45.3846 62.8181 45.4101 62.4475C45.6619 58.8517 48.6664 56.0311 52.2537 56.0311C52.9016 56.0311 53.5834 56.1499 54.3416 56.3904C54.4038 56.4102 54.4689 56.4186 54.5311 56.4186C54.6867 56.4186 54.8424 56.3621 54.9725 56.2659C55.1536 56.1357 55.2611 55.9037 55.2611 55.6774C55.2611 52.7521 57.6403 50.3728 60.5656 50.3728C61.8303 50.3728 63.0694 50.8481 64.0483 51.711C64.1812 51.827 64.3482 51.8892 64.5151 51.8892C64.6056 51.8892 64.6933 51.8723 64.7782 51.8355C65.0271 51.7365 65.1969 51.5045 65.2167 51.2357C65.5109 47.5777 68.5918 44.7146 72.2357 44.7146C72.8242 44.7146 73.4381 44.8108 74.1652 45.0173C74.2302 45.0371 74.2981 45.0456 74.3632 45.0456C74.6716 45.0456 74.9488 44.8391 75.0394 44.5307C75.1469 44.1544 74.929 43.764 74.5528 43.6565C73.6984 43.4132 72.96 43.3 72.2357 43.3ZM111.512 47.5437C107.761 47.5437 104.417 50.0814 103.381 53.7168C103.274 54.0931 103.492 54.4835 103.868 54.591C103.936 54.608 104.001 54.6165 104.063 54.6165C104.372 54.6165 104.655 54.4128 104.742 54.1016C105.605 51.0745 108.389 48.9583 111.512 48.9583C111.843 48.9583 112.163 48.9979 112.48 49.0403C112.514 49.046 112.545 49.0488 112.579 49.0488C112.921 49.0488 113.227 48.7885 113.275 48.4349C113.329 48.0473 113.057 47.6908 112.669 47.6399C112.29 47.589 111.906 47.5437 111.512 47.5437Z" fill="#472B29"/>
<path d="M146.76 182.776C142.638 182.776 139.286 179.423 139.286 175.301V72.559C139.286 68.437 142.638 65.0845 146.76 65.0845H184.433C188.555 65.0845 191.907 68.437 191.907 72.559V175.301C191.907 179.423 188.555 182.776 184.433 182.776H146.76Z" fill="#BEBACB"/>
<path d="M184.433 67.0648C187.463 67.0648 189.927 69.5289 189.927 72.5589V175.301C189.927 178.331 187.463 180.795 184.433 180.795H146.76C143.73 180.795 141.266 178.331 141.266 175.301V72.5589C141.266 69.5289 143.73 67.0648 146.76 67.0648H184.433ZM184.433 63.104H146.76C141.538 63.104 137.305 67.3364 137.305 72.5589V175.301C137.305 180.523 141.538 184.756 146.76 184.756H184.436C189.655 184.756 193.888 180.523 193.888 175.301V72.5589C193.888 67.3364 189.655 63.104 184.433 63.104Z" fill="#472B29"/>
<path d="M147.207 106.955H183.986V112.614H147.207V106.955Z" fill="#BEBACB"/>
<path d="M182.571 108.37V111.199H148.622V108.37H182.571ZM185.4 105.541H145.793V114.028H185.4V105.541ZM178.328 88.566H175.498C174.718 88.566 174.084 87.9322 174.084 87.1514C174.084 86.3706 174.718 85.7368 175.498 85.7368H178.328C179.108 85.7368 179.742 86.3706 179.742 87.1514C179.742 87.9322 179.108 88.566 178.328 88.566ZM178.328 97.0533H152.866C152.085 97.0533 151.451 96.4196 151.451 95.6387C151.451 94.8579 152.085 94.2242 152.866 94.2242H178.328C179.108 94.2242 179.742 94.8579 179.742 95.6387C179.742 96.4196 179.108 97.0533 178.328 97.0533ZM178.328 80.0786H152.866C152.085 80.0786 151.451 79.4449 151.451 78.6641C151.451 77.8832 152.085 77.2495 152.866 77.2495H178.328C179.108 77.2495 179.742 77.8832 179.742 78.6641C179.742 79.4449 179.108 80.0786 178.328 80.0786ZM169.84 88.566H152.866C152.085 88.566 151.451 87.9322 151.451 87.1514C151.451 86.3706 152.085 85.7368 152.866 85.7368H169.84C170.621 85.7368 171.255 86.3706 171.255 87.1514C171.255 87.9322 170.621 88.566 169.84 88.566Z" fill="#472B29"/>
<path d="M167.011 123.223C165.323 123.223 163.704 123.893 162.51 125.087C161.316 126.281 160.646 127.9 160.646 129.588C160.646 131.276 161.316 132.895 162.51 134.089C163.704 135.283 165.323 135.954 167.011 135.954C168.699 135.954 170.318 135.283 171.512 134.089C172.706 132.895 173.377 131.276 173.377 129.588C173.377 127.9 172.706 126.281 171.512 125.087C170.318 123.893 168.699 123.223 167.011 123.223Z" fill="#FFE6D6"/>
<path d="M167.011 123.93C170.132 123.93 172.669 126.468 172.669 129.588C172.669 132.709 170.132 135.246 167.011 135.246C163.891 135.246 161.353 132.709 161.353 129.588C161.353 126.468 163.891 123.93 167.011 123.93ZM167.011 122.515C163.104 122.515 159.938 125.681 159.938 129.588C159.938 133.495 163.104 136.661 167.011 136.661C170.918 136.661 174.084 133.495 174.084 129.588C174.084 125.681 170.918 122.515 167.011 122.515Z" fill="#472B29"/>
<path d="M146.257 181.041C146.214 181.041 146.175 181.038 146.135 181.03C145.75 180.965 145.493 180.597 145.561 180.212L147.782 167.541C148.546 163.755 150.996 161.416 154.178 161.416H156.974C157.364 161.416 157.681 161.732 157.681 162.123C157.681 162.513 157.364 162.83 156.974 162.83H154.178C151.672 162.83 149.802 164.689 149.171 167.804L146.953 180.455C146.893 180.798 146.594 181.041 146.257 181.041Z" fill="#472B29"/>
<path d="M164.793 162.83H160.994C160.603 162.83 160.286 162.513 160.286 162.123C160.286 161.732 160.603 161.416 160.994 161.416H164.793C165.184 161.416 165.5 161.732 165.5 162.123C165.5 162.513 165.184 162.83 164.793 162.83Z" fill="#472B29"/>
<path d="M186.028 183.681H145.793C145.583 183.681 145.385 183.59 145.252 183.429C145.119 183.268 145.063 183.055 145.097 182.852L145.561 180.209C145.626 179.825 145.999 179.547 146.378 179.635C146.763 179.7 147.021 180.068 146.953 180.453L146.636 182.266H185.185L182.65 167.784C182.037 164.686 180.164 162.83 177.646 162.83H169.487C169.096 162.83 168.779 162.513 168.779 162.123C168.779 161.732 169.096 161.416 169.487 161.416H177.646C180.84 161.416 183.293 163.755 184.04 167.524L186.724 182.852C186.761 183.055 186.705 183.268 186.569 183.429C186.433 183.59 186.238 183.681 186.028 183.681Z" fill="#472B29"/>
<path d="M99.678 164.103H115.521V177.117H99.678V164.103Z" fill="#BEBACB"/>
<path d="M113.541 166.084V175.137H101.659V166.084H113.541ZM117.502 162.123H97.6978V179.097H117.502V162.123Z" fill="#472B29"/>
<path d="M89.0519 182.775C87.1111 182.775 85.5325 181.197 85.5325 179.259V178.939C85.5325 176.998 87.1111 175.423 89.0519 175.423H126.147C128.088 175.423 129.667 177.001 129.667 178.939V179.259C129.667 181.2 128.088 182.775 126.147 182.775H89.0519Z" fill="#BEBACB"/>
<path d="M126.147 177.4C126.996 177.4 127.686 178.091 127.686 178.939V179.259C127.686 180.108 126.996 180.798 126.147 180.798H89.052C88.2033 180.798 87.513 180.108 87.513 179.259V178.939C87.513 178.091 88.2033 177.4 89.052 177.4H126.147ZM126.147 173.439H89.052C86.0136 173.439 83.5522 175.901 83.5522 178.939V179.259C83.5522 182.295 86.0136 184.756 89.052 184.756H126.15C129.186 184.756 131.647 182.295 131.647 179.256V178.936C131.647 175.901 129.186 173.439 126.147 173.439Z" fill="#472B29"/>
<path d="M74.3577 113.321C73.5768 113.321 72.9431 112.684 72.9431 111.906V107.663C72.9431 106.885 73.5768 106.248 74.3577 106.248H78.6013C79.3822 106.248 80.0159 106.885 80.0159 107.663V111.906C80.0159 112.684 79.3822 113.321 78.6013 113.321H74.3577Z" fill="#CBD9EE"/>
<path d="M78.6013 106.955C78.9918 106.955 79.3086 107.272 79.3086 107.663V111.906C79.3086 112.297 78.9918 112.614 78.6013 112.614H74.3577C73.9673 112.614 73.6504 112.297 73.6504 111.906V107.663C73.6504 107.272 73.9673 106.955 74.3577 106.955H78.6013ZM78.6013 105.541H74.3577C73.1864 105.541 72.2358 106.491 72.2358 107.663V111.906C72.2358 113.078 73.1864 114.028 74.3577 114.028H78.6013C79.7726 114.028 80.7232 113.078 80.7232 111.906V107.663C80.7232 106.491 79.7726 105.541 78.6013 105.541Z" fill="#472B29"/>
<path d="M74.3577 127.466C73.5768 127.466 72.9431 126.83 72.9431 126.052V121.808C72.9431 121.03 73.5768 120.394 74.3577 120.394H78.6013C79.3822 120.394 80.0159 121.03 80.0159 121.808V126.052C80.0159 126.83 79.3822 127.466 78.6013 127.466H74.3577Z" fill="#FFE6D6"/>
<path d="M78.6013 121.101C78.9918 121.101 79.3086 121.418 79.3086 121.808V126.052C79.3086 126.442 78.9918 126.759 78.6013 126.759H74.3577C73.9673 126.759 73.6504 126.442 73.6504 126.052V121.808C73.6504 121.418 73.9673 121.101 74.3577 121.101H78.6013ZM78.6013 119.686H74.3577C73.1864 119.686 72.2358 120.637 72.2358 121.808V126.052C72.2358 127.223 73.1864 128.174 74.3577 128.174H78.6013C79.7726 128.174 80.7232 127.223 80.7232 126.052V121.808C80.7232 120.637 79.7726 119.686 78.6013 119.686Z" fill="#472B29"/>
<path d="M74.3577 141.612C73.5768 141.612 72.9431 140.975 72.9431 140.197V135.954C72.9431 135.176 73.5768 134.539 74.3577 134.539H78.6013C79.3822 134.539 80.0159 135.176 80.0159 135.954V140.197C80.0159 140.975 79.3822 141.612 78.6013 141.612H74.3577Z" fill="#D9F7D0"/>
<path d="M78.6013 135.246C78.9918 135.246 79.3086 135.563 79.3086 135.954V140.197C79.3086 140.588 78.9918 140.905 78.6013 140.905H74.3577C73.9673 140.905 73.6504 140.588 73.6504 140.197V135.954C73.6504 135.563 73.9673 135.246 74.3577 135.246H78.6013ZM78.6013 133.832H74.3577C73.1864 133.832 72.2358 134.782 72.2358 135.954V140.197C72.2358 141.369 73.1864 142.319 74.3577 142.319H78.6013C79.7726 142.319 80.7232 141.369 80.7232 140.197V135.954C80.7232 134.782 79.7726 133.832 78.6013 133.832Z" fill="#472B29"/>
<path d="M209.448 200.316C209.448 200.316 213.881 200.316 219.35 200.316C224.818 200.316 229.251 195.883 229.251 190.414C229.251 185.375 225.475 181.265 220.609 180.639C220.688 180.133 220.764 179.627 220.764 179.097C220.764 173.629 216.331 169.196 210.862 169.196C207.943 169.196 205.345 170.483 203.535 172.491C202.448 167.376 197.913 163.537 192.473 163.537C186.224 163.537 181.157 168.604 181.157 174.854C181.157 175.394 181.241 175.912 181.315 176.432C180.104 175.459 178.588 174.854 176.913 174.854C173.439 174.854 170.562 177.363 169.967 180.668C169.461 180.588 168.955 180.512 168.426 180.512C162.957 180.512 158.524 184.945 158.524 190.414C158.524 195.883 162.957 200.316 168.426 200.316C173.894 200.316 189.644 200.316 189.644 200.316V201.73H209.448V200.316Z" fill="#FDFCEF"/>
<path d="M214.399 187.585C214.008 187.585 213.691 187.268 213.691 186.878C213.691 183.418 216.506 180.603 219.966 180.603C220.063 180.628 222.051 180.6 223.486 180.987C223.862 181.089 224.086 181.477 223.984 181.853C223.882 182.232 223.494 182.456 223.118 182.351C221.862 182.011 220.006 182.011 219.969 182.017C217.287 182.017 215.106 184.198 215.106 186.878C215.106 187.268 214.789 187.585 214.399 187.585ZM195.302 198.901C194.927 198.901 194.567 199.05 194.302 199.316C194.037 199.581 193.888 199.941 193.888 200.316C193.888 200.691 194.037 201.051 194.302 201.316C194.567 201.581 194.927 201.73 195.302 201.73C195.677 201.73 196.037 201.581 196.302 201.316C196.568 201.051 196.717 200.691 196.717 200.316C196.717 199.941 196.568 199.581 196.302 199.316C196.037 199.05 195.677 198.901 195.302 198.901Z" fill="#472B29"/>
<path d="M219.35 201.73H209.448C208.667 201.73 208.033 201.097 208.033 200.316C208.033 199.535 208.667 198.901 209.448 198.901H219.35C224.029 198.901 227.837 195.093 227.837 190.414C227.837 186.182 224.654 182.583 220.43 182.043C220.051 181.992 219.709 181.794 219.48 181.488C219.251 181.183 219.154 180.798 219.214 180.421C219.279 179.986 219.35 179.55 219.35 179.097C219.35 174.418 215.542 170.61 210.862 170.61C208.457 170.61 206.228 171.614 204.584 173.439C204.231 173.832 203.676 173.999 203.17 173.858C202.655 173.719 202.262 173.306 202.151 172.786C201.187 168.248 197.116 164.952 192.473 164.952C187.013 164.952 182.571 169.394 182.571 174.854C182.571 175.258 182.631 175.646 182.687 176.036C182.769 176.611 182.509 177.276 182.002 177.564C181.496 177.853 180.882 177.898 180.429 177.536C179.397 176.707 178.183 176.268 176.913 176.268C174.18 176.268 171.843 178.223 171.359 180.919C171.224 181.675 170.522 182.181 169.75 182.065C169.314 181.997 168.878 181.927 168.426 181.927C163.746 181.927 159.938 185.735 159.938 190.414C159.938 195.093 163.746 198.901 168.426 198.901H189.644C190.425 198.901 191.058 199.535 191.058 200.316C191.058 201.097 190.425 201.73 189.644 201.73H168.426C162.185 201.73 157.109 196.655 157.109 190.414C157.109 184.173 162.185 179.097 168.426 179.097C168.592 179.097 168.754 179.103 168.918 179.114C170.089 175.759 173.266 173.439 176.913 173.439C177.9 173.439 178.862 173.612 179.773 173.948C180.24 167.348 185.757 162.123 192.473 162.123C197.653 162.123 202.279 165.311 204.222 169.971C206.146 168.562 208.472 167.781 210.862 167.781C217.103 167.781 222.179 172.856 222.179 179.097C222.179 179.233 222.176 179.366 222.167 179.499C227.099 180.767 230.666 185.234 230.666 190.414C230.666 196.655 225.591 201.73 219.35 201.73Z" fill="#472B29"/>
<path d="M203.79 198.901C203.34 198.901 201.41 198.901 200.96 198.901C200.18 198.901 199.546 199.535 199.546 200.316C199.546 201.097 200.18 201.73 200.96 201.73C201.41 201.73 203.34 201.73 203.79 201.73C204.57 201.73 205.204 201.097 205.204 200.316C205.204 199.535 204.57 198.901 203.79 198.901Z" fill="#472B29"/>
</svg>
