<svg width="80" height="72" viewBox="0 0 80 72" fill="none" xmlns="http://www.w3.org/2000/svg">
<path d="M7.3421 25.7791C6.97156 12.8861 17.1025 1.96875 29.875 1.96875H29.9036H29.9323H29.961H29.9897H30.0184H30.0471H30.0758H30.1046H30.1334H30.1622H30.191H30.2198H30.2486H30.2775H30.3064H30.3353H30.3642H30.3931H30.422H30.451H30.48H30.509H30.538H30.567H30.596H30.6251H30.6542H30.6832H30.7123H30.7415H30.7706H30.7998H30.8289H30.8581H30.8873H30.9165H30.9457H30.975H31.0043H31.0335H31.0628H31.0921H31.1215H31.1508H31.1802H31.2095H31.2389H31.2683H31.2977H31.3272H31.3566H31.3861H31.4155H31.445H31.4746H31.5041H31.5336H31.5632H31.5927H31.6223H31.6519H31.6815H31.7112H31.7408H31.7705H31.8001H31.8298H31.8595H31.8892H31.919H31.9487H31.9785H32.0083H32.038H32.0679H32.0977H32.1275H32.1574H32.1872H32.2171H32.247H32.2769H32.3068H32.3367H32.3667H32.3967H32.4266H32.4566H32.4866H32.5166H32.5467H32.5767H32.6068H32.6369H32.6669H32.697H32.7272H32.7573H32.7874H32.8176H32.8478H32.8779H32.9081H32.9383H32.9686H32.9988H33.0291H33.0593H33.0896H33.1199H33.1502H33.1805H33.2108H33.2412H33.2715H33.3019H33.3323H33.3627H33.3931H33.4235H33.4539H33.4844H33.5149H33.5453H33.5758H33.6063H33.6368H33.6673H33.6979H33.7284H33.759H33.7896H33.8202H33.8508H33.8814H33.912H33.9426H33.9733H34.0039H34.0346H34.0653H34.096H34.1267H34.1574H34.1882H34.2189H34.2497H34.2804H34.3112H34.342H34.3728H34.4036H34.4345H34.4653H34.4962H34.527H34.5579H34.5888H34.6197H34.6506H34.6815H34.7125H34.7434H34.7744H34.8053H34.8363H34.8673H34.8983H34.9293H34.9603H34.9914H35.0224H35.0535H35.0846H35.1156H35.1467H35.1778H35.209H35.2401H35.2712H35.3024H35.3335H35.3647H35.3959H35.4271H35.4583H35.4895H35.5207H35.5519H35.5832H35.6144H35.6457H35.677H35.7082H35.7395H35.7708H35.8022H35.8335H35.8648H35.8962H35.9275H35.9589H35.9903H36.0217H36.0531H36.0845H36.1159H36.1473H36.1788H36.2102H36.2417H36.2731H36.3046H36.3361H36.3676H36.3991H36.4306H36.4621H36.4937H36.5252H36.5568H36.5883H36.6199H36.6515H36.6831H36.7147H36.7463H36.7779H36.8095H36.8412H36.8728H36.9045H36.9361H36.9678H36.9995H37.0312H37.0629H37.0946H37.1263H37.1581H37.1898H37.2215H37.2533H37.2851H37.3168H37.3486H37.3804H37.4122H37.444H37.4758H37.5076H37.5395H37.5713H37.6032H37.635H37.6669H37.6988H37.7306H37.7625H37.7944H37.8263H37.8582H37.8902H37.9221H37.954H37.986H38.0179H38.0499H38.0819H38.1138H38.1458H38.1778H38.2098H38.2418H38.2739H38.3059H38.3379H38.37H38.402H38.4341H38.4661H38.4982H38.5303H38.5623H38.5944H38.6265H38.6586H38.6908H38.7229H38.755H38.7871H38.8193H38.8514H38.8836H38.9158H38.9479H38.9801H39.0123H39.0445H39.0767H39.1089H39.1411H39.1733H39.2055H39.2378H39.27H39.3022H39.3345H39.3667H39.399H39.4313H39.4636H39.4958H39.5281H39.5604H39.5927H39.625H39.6574H39.6897H39.722H39.7543H39.7867H39.819H39.8514H39.8837H39.9161H39.9485H39.9808H40.0132H40.0456H40.078H40.1104H40.1428H40.1752H40.2076H40.24H40.2725H40.3049H40.3373H40.3698H40.4022H40.4347H40.4671H40.4996H40.5321H40.5645H40.597H40.6295H40.662H40.6945H40.727H40.7595H40.792H40.8245H40.857H40.8895H40.9221H40.9546H40.9872H41.0197H41.0522H41.0848H41.1174H41.1499H41.1825H41.2151H41.2476H41.2802H41.3128H41.3454H41.378H41.4106H41.4432H41.4758H41.5084H41.541H41.5736H41.6063H41.6389H41.6715H41.7042H41.7368H41.7694H41.8021H41.8347H41.8674H41.9001H41.9327H41.9654H41.9981H42.0307H42.0634H42.0961H42.1288H42.1615H42.1942H42.2269H42.2596H42.2923H42.325H42.3577H42.3904H42.4231H42.4558H42.4886H42.5213H42.554H42.5867H42.6195H42.6522H42.685H42.7177H42.7505H42.7832H42.816H42.8487H42.8815H42.9142H42.947H42.9798H43.0125H43.0453H43.0781H43.1109H43.1436H43.1764H43.2092H43.242H43.2748H43.3076H43.3404H43.3732H43.406H43.4388H43.4716H43.5044H43.5372H43.57H43.6028H43.6356H43.6685H43.7013H43.7341H43.7669H43.7997H43.8326H43.8654H43.8982H43.9311H43.9639H43.9967H44.0296H44.0624H44.0952H44.1281H44.1609H44.1938H44.2266H44.2595H44.2923H44.3252H44.358H44.3909H44.4237H44.4566H44.4894H44.5223H44.5551H44.588H44.6209H44.6537H44.6866H44.7194H44.7523H44.7852H44.818H44.8509H44.8838H44.9166H44.9495H44.9824H45.0153H45.0481H45.081H45.1139H45.1467H45.1796H45.2125H45.2454H45.2782H45.3111H45.344H45.3769H45.4097H45.4426H45.4755H45.5083H45.5412H45.5741H45.607H45.6398H45.6727H45.7056H45.7385H45.7713H45.8042H45.8371H45.87H45.9028H45.9357H45.9686H46.0015C60.8342 1.96875 72.4574 14.8478 71.7955 29.8243C71.5714 34.8956 71.4505 39.9928 71.5316 44.5351C71.7743 58.1367 61.6447 69.7858 48.3986 69.6494C41.7705 69.5812 34.905 69.5312 29 69.5312C16.6824 69.5312 6.77409 59.3713 7.24693 47.1001C7.35404 44.3205 7.43479 41.7082 7.46851 39.5305C7.53713 35.099 7.47398 30.368 7.3421 25.7791Z" stroke="#C7EDE6" stroke-width="3.9375"/>
<path d="M45.8334 39.3334H44.5167L44.0501 38.8834C46.0501 36.55 47.0834 33.3667 46.5167 29.9834C45.7334 25.35 41.8667 21.65 37.2001 21.0834C30.1501 20.2167 24.2167 26.15 25.0834 33.2C25.6501 37.8667 29.3501 41.7334 33.9834 42.5167C37.3667 43.0834 40.5501 42.05 42.8834 40.05L43.3334 40.5167V41.8334L50.4167 48.9167C51.1001 49.6 52.2167 49.6 52.9001 48.9167C53.5834 48.2334 53.5834 47.1167 52.9001 46.4334L45.8334 39.3334ZM35.8334 39.3334C31.6834 39.3334 28.3334 35.9834 28.3334 31.8334C28.3334 27.6834 31.6834 24.3334 35.8334 24.3334C39.9834 24.3334 43.3334 27.6834 43.3334 31.8334C43.3334 35.9834 39.9834 39.3334 35.8334 39.3334Z" fill="#4F5665"/>
</svg>
