<svg width="72" height="48" viewBox="0 0 72 48" fill="none" xmlns="http://www.w3.org/2000/svg">
<path d="M15.8289 9.34888H55.9119V38.6099H15.8289V9.34888Z" fill="#88CDD7"/>
<path d="M49.9029 39.3099H45.8939C45.5069 39.3099 45.1939 38.9969 45.1939 38.6099C45.1939 38.2229 45.5069 37.9099 45.8939 37.9099H49.9029C50.2899 37.9099 50.6029 38.2229 50.6029 38.6099C50.6029 38.9969 50.2889 39.3099 49.9029 39.3099ZM41.8839 39.3099H37.8749C37.4879 39.3099 37.1749 38.9969 37.1749 38.6099C37.1749 38.2229 37.4879 37.9099 37.8749 37.9099H41.8839C42.2709 37.9099 42.5839 38.2229 42.5839 38.6099C42.5839 38.9969 42.2709 39.3099 41.8839 39.3099ZM33.8659 39.3099H29.8569C29.4699 39.3099 29.1569 38.9969 29.1569 38.6099C29.1569 38.2229 29.4699 37.9099 29.8569 37.9099H33.8659C34.2529 37.9099 34.5659 38.2229 34.5659 38.6099C34.5659 38.9969 34.2519 39.3099 33.8659 39.3099ZM25.8469 39.3099H21.8379C21.4509 39.3099 21.1379 38.9969 21.1379 38.6099C21.1379 38.2229 21.4509 37.9099 21.8379 37.9099H25.8469C26.2339 37.9099 26.5469 38.2229 26.5469 38.6099C26.5469 38.9969 26.2339 39.3099 25.8469 39.3099ZM17.8279 39.3099H15.8279C15.4409 39.3099 15.1279 38.9969 15.1279 38.6099V36.6099C15.1279 36.2229 15.4409 35.9099 15.8279 35.9099C16.2149 35.9099 16.5279 36.2229 16.5279 36.6099V37.9099H17.8279C18.2149 37.9099 18.5279 38.2229 18.5279 38.6099C18.5279 38.9969 18.2149 39.3099 17.8279 39.3099ZM15.8279 33.6999C15.4409 33.6999 15.1279 33.3869 15.1279 32.9999V29.3919C15.1279 29.0049 15.4409 28.6919 15.8279 28.6919C16.2149 28.6919 16.5279 29.0049 16.5279 29.3919V32.9999C16.5289 33.3869 16.2149 33.6999 15.8279 33.6999ZM15.8279 26.4829C15.4409 26.4829 15.1279 26.1699 15.1279 25.7829V22.1739C15.1279 21.7869 15.4409 21.4739 15.8279 21.4739C16.2149 21.4739 16.5279 21.7869 16.5279 22.1739V25.7819C16.5289 26.1689 16.2149 26.4829 15.8279 26.4829ZM15.8279 19.2659C15.4409 19.2659 15.1279 18.9529 15.1279 18.5659V14.9579C15.1279 14.5709 15.4409 14.2579 15.8279 14.2579C16.2149 14.2579 16.5279 14.5709 16.5279 14.9579V18.5659C16.5289 18.9519 16.2149 19.2659 15.8279 19.2659ZM15.8279 12.0489C15.4409 12.0489 15.1279 11.7359 15.1279 11.3489V9.34893C15.1279 8.96193 15.4409 8.64893 15.8279 8.64893H17.8279C18.2149 8.64893 18.5279 8.96193 18.5279 9.34893C18.5279 9.73593 18.2149 10.0489 17.8279 10.0489H16.5279V11.3489C16.5289 11.7359 16.2149 12.0489 15.8279 12.0489ZM49.9019 10.0489H45.8929C45.5059 10.0489 45.1929 9.73593 45.1929 9.34893C45.1929 8.96193 45.5059 8.64893 45.8929 8.64893H49.9019C50.2889 8.64893 50.6019 8.96193 50.6019 9.34893C50.6019 9.73593 50.2889 10.0489 49.9019 10.0489ZM41.8839 10.0489H37.8749C37.4879 10.0489 37.1749 9.73593 37.1749 9.34893C37.1749 8.96193 37.4879 8.64893 37.8749 8.64893H41.8839C42.2709 8.64893 42.5839 8.96193 42.5839 9.34893C42.5839 9.73593 42.2709 10.0489 41.8839 10.0489ZM33.8659 10.0489H29.8569C29.4699 10.0489 29.1569 9.73593 29.1569 9.34893C29.1569 8.96193 29.4699 8.64893 29.8569 8.64893H33.8659C34.2529 8.64893 34.5659 8.96193 34.5659 9.34893C34.5659 9.73593 34.2519 10.0489 33.8659 10.0489ZM25.8469 10.0489H21.8379C21.4509 10.0489 21.1379 9.73593 21.1379 9.34893C21.1379 8.96193 21.4509 8.64893 21.8379 8.64893H25.8469C26.2339 8.64893 26.5469 8.96193 26.5469 9.34893C26.5469 9.73593 26.2339 10.0489 25.8469 10.0489ZM55.9119 12.0489C55.5249 12.0489 55.2119 11.7359 55.2119 11.3489V10.0489H53.9119C53.5249 10.0489 53.2119 9.73593 53.2119 9.34893C53.2119 8.96193 53.5249 8.64893 53.9119 8.64893H55.9119C56.2989 8.64893 56.6119 8.96193 56.6119 9.34893V11.3489C56.6119 11.7359 56.2989 12.0489 55.9119 12.0489ZM55.9119 33.6999C55.5249 33.6999 55.2119 33.3869 55.2119 32.9999V29.3919C55.2119 29.0049 55.5249 28.6919 55.9119 28.6919C56.2989 28.6919 56.6119 29.0049 56.6119 29.3919V32.9999C56.6119 33.3869 56.2989 33.6999 55.9119 33.6999ZM55.9119 26.4839C55.5249 26.4839 55.2119 26.1709 55.2119 25.7839V22.1759C55.2119 21.7889 55.5249 21.4759 55.9119 21.4759C56.2989 21.4759 56.6119 21.7889 56.6119 22.1759V25.7839C56.6119 26.1699 56.2989 26.4839 55.9119 26.4839ZM55.9119 19.2659C55.5249 19.2659 55.2119 18.9529 55.2119 18.5659V14.9579C55.2119 14.5709 55.5249 14.2579 55.9119 14.2579C56.2989 14.2579 56.6119 14.5709 56.6119 14.9579V18.5659C56.6119 18.9519 56.2989 19.2659 55.9119 19.2659Z" fill="#472B29"/>
<path d="M18.073 10.0489H11.7C11.313 10.0489 11 9.73593 11 9.34893C11 8.96193 11.313 8.64893 11.7 8.64893H18.073C18.46 8.64893 18.773 8.96193 18.773 9.34893C18.773 9.73593 18.46 10.0489 18.073 10.0489Z" fill="#472B29"/>
<path d="M18.398 39.3099H12.025C11.638 39.3099 11.325 38.9969 11.325 38.6099C11.325 38.2229 11.638 37.9099 12.025 37.9099H18.398C18.785 37.9099 19.098 38.2229 19.098 38.6099C19.098 38.9969 18.785 39.3099 18.398 39.3099Z" fill="#472B29"/>
<path d="M59.898 39.244H53.525C53.138 39.244 52.825 38.931 52.825 38.544C52.825 38.157 53.138 37.844 53.525 37.844H59.898C60.285 37.844 60.598 38.157 60.598 38.544C60.598 38.931 60.285 39.244 59.898 39.244Z" fill="#472B29"/>
<path d="M60.5811 10.0489H54.2081C53.8211 10.0489 53.5081 9.73593 53.5081 9.34893C53.5081 8.96193 53.8211 8.64893 54.2081 8.64893H60.5811C60.9681 8.64893 61.2811 8.96193 61.2811 9.34893C61.2811 9.73593 60.9681 10.0489 60.5811 10.0489Z" fill="#472B29"/>
<path d="M15.8279 11.773C15.4409 11.773 15.1279 11.46 15.1279 11.073V4.7C15.1279 4.313 15.4409 4 15.8279 4C16.2149 4 16.5279 4.313 16.5279 4.7V11.073C16.5289 11.459 16.2149 11.773 15.8279 11.773Z" fill="#472B29"/>
<path d="M16.025 43.617C15.638 43.617 15.325 43.304 15.325 42.917V36.544C15.325 36.157 15.638 35.844 16.025 35.844C16.412 35.844 16.725 36.157 16.725 36.544V42.917C16.726 43.303 16.412 43.617 16.025 43.617Z" fill="#472B29"/>
<path d="M55.9119 11.773C55.5249 11.773 55.2119 11.46 55.2119 11.073V4.7C55.2119 4.313 55.5249 4 55.9119 4C56.2989 4 56.6119 4.313 56.6119 4.7V11.073C56.6119 11.459 56.2989 11.773 55.9119 11.773Z" fill="#472B29"/>
<path d="M55.825 43.617C55.438 43.617 55.125 43.304 55.125 42.917V36.544C55.125 36.157 55.438 35.844 55.825 35.844C56.212 35.844 56.525 36.157 56.525 36.544V42.917C56.525 43.303 56.212 43.617 55.825 43.617Z" fill="#472B29"/>
<g clip-path="url(#clip0)">
<path d="M20.8644 32.7887C20.8045 33.0583 20.9745 33.3254 21.2441 33.3853L25.6369 34.3617C25.9064 34.4216 26.1735 34.2516 26.2334 33.9821C26.2933 33.7125 26.1234 33.4454 25.8538 33.3855L21.9491 32.5176L22.817 28.6129C22.8769 28.3433 22.7069 28.0762 22.4374 28.0163C22.1678 27.9564 21.9007 28.1264 21.8408 28.3959L20.8644 32.7887ZM51.1291 14.3691C51.189 14.0996 51.0191 13.8325 50.7495 13.7725L46.3567 12.7962C46.0872 12.7363 45.8201 12.9062 45.7601 13.1758C45.7002 13.4454 45.8702 13.7125 46.1398 13.7724L50.0445 14.6402L49.1766 18.545C49.1167 18.8145 49.2866 19.0816 49.5562 19.1415C49.8258 19.2014 50.0929 19.0315 50.1528 18.7619L51.1291 14.3691ZM21.621 33.3191L50.9095 14.6825L50.3726 13.8388L21.0841 32.4754L21.621 33.3191Z" fill="#472B29"/>
</g>
<defs>
<clipPath id="clip0">
<rect width="40" height="8" fill="white" transform="translate(16.325 31.3176) rotate(-32.469)"/>
</clipPath>
</defs>
</svg>
