<svg width="72" height="48" viewBox="0 0 72 48" fill="none" xmlns="http://www.w3.org/2000/svg">
<path d="M47.886 30.3793C47.886 30.3793 38.9269 30.3793 38.8725 30.3793C36.8034 30.3793 35.1267 28.7018 35.1267 26.6327C35.1267 24.828 36.4034 23.3214 38.1031 22.9666C38.0832 22.8088 38.0702 22.6486 38.0702 22.4854C38.0702 20.3427 39.8074 18.6055 41.9501 18.6055C43.2153 18.6055 44.3356 19.2139 45.0437 20.1512C45.2246 17.7656 47.3557 15.9256 49.8486 16.2306C51.6717 16.4536 53.179 17.8629 53.5147 19.6684C53.622 20.2477 53.6112 20.8094 53.504 21.3367C53.9929 20.8102 54.6887 20.4791 55.4634 20.4791C56.8812 20.4791 58.0391 21.5834 58.1303 22.9781C58.774 22.8356 59.4744 22.8448 60.2124 23.1222C61.6224 23.6517 62.6263 24.979 62.6853 26.4841C62.7688 28.6214 61.0607 30.3808 58.9418 30.3808C58.7809 30.3808 58.2153 30.3808 58.0851 30.3808H50.3061" fill="#FDFCEF"/>
<path d="M38.8725 30.7623H47.886C48.0975 30.7623 48.2692 30.5907 48.2692 30.3792C48.2692 30.1677 48.0975 29.996 47.886 29.996H38.8725C37.018 29.996 35.5091 28.4871 35.5091 26.6326C35.5091 25.0494 36.6325 23.6646 38.1805 23.3412C38.3759 23.3006 38.507 23.1167 38.4824 22.9182C38.4648 22.7757 38.4525 22.6316 38.4525 22.4853C38.4525 20.5564 40.0212 18.9885 41.9485 18.9885C43.0505 18.9885 44.0674 19.4966 44.7364 20.3817C44.8322 20.5089 44.9954 20.5633 45.1502 20.5181C45.3027 20.4729 45.4123 20.3388 45.4238 20.1802C45.5035 19.1249 46.0208 18.1333 46.8415 17.4605C47.6714 16.78 48.7236 16.478 49.7995 16.6106C51.4594 16.8145 52.8311 18.0996 53.1353 19.738C53.2304 20.2491 53.2273 20.761 53.1254 21.2599C53.0917 21.4285 53.1729 21.5986 53.3262 21.6768C53.4794 21.7565 53.6656 21.7228 53.7821 21.5971C54.2228 21.1235 54.819 20.8622 55.4604 20.8622C56.6627 20.8622 57.6659 21.8032 57.7448 23.0033C57.7525 23.1152 57.8076 23.2171 57.8973 23.2838C57.9869 23.352 58.1027 23.3757 58.2099 23.352C58.8544 23.2102 59.4644 23.2508 60.0744 23.4799C61.3534 23.9604 62.247 25.1728 62.2991 26.4977C62.3351 27.4227 62.0025 28.2986 61.3634 28.9638C60.7235 29.6297 59.8621 29.9968 58.9387 29.9968H50.303C50.0915 29.9968 49.9198 30.1684 49.9198 30.3799C49.9198 30.5914 50.0915 30.7631 50.303 30.7631H58.9403C60.0736 30.7631 61.1304 30.3125 61.9167 29.4956C62.7021 28.6787 63.1106 27.6035 63.0662 26.4686C63.0025 24.8394 61.909 23.3504 60.3457 22.7634C59.7326 22.5328 59.0996 22.4584 58.4544 22.5343C58.1655 21.1381 56.9233 20.0959 55.4619 20.0959C54.9377 20.0959 54.4243 20.2338 53.9722 20.4867C53.9722 20.1909 53.9453 19.8951 53.8909 19.5985C53.5254 17.6352 51.8824 16.0941 49.8945 15.8504C48.6079 15.6933 47.3504 16.0543 46.3572 16.8681C45.5886 17.4988 45.0422 18.3632 44.7954 19.315C44.0199 18.613 43.0183 18.2222 41.9493 18.2222C39.599 18.2222 37.687 20.1349 37.687 22.4853C37.687 22.5489 37.6885 22.6125 37.6924 22.6753C35.9651 23.191 34.7435 24.8026 34.7435 26.6326C34.7428 28.9109 36.595 30.7623 38.8725 30.7623Z" fill="#472B29"/>
<path d="M50.057 22.1276C51.4425 22.0364 52.6357 22.9935 52.7208 24.2649C52.7315 24.4227 52.7246 24.5783 52.7016 24.7293C52.969 24.4273 53.3645 24.2227 53.8189 24.1928C54.6504 24.1384 55.3684 24.6871 55.4726 25.4343C55.6236 25.3929 55.7815 25.3653 55.9447 25.3546C57.157 25.2749 58.2007 26.1125 58.2758 27.2252" fill="#FDFCEF"/>
<path d="M58.2751 27.4159C58.2797 27.4159 58.2843 27.4159 58.2881 27.4151C58.3939 27.4082 58.4736 27.317 58.4667 27.2113C58.3847 25.9951 57.2498 25.074 55.9317 25.1621C55.8267 25.169 55.7225 25.1821 55.6182 25.2027C55.4083 24.4609 54.6557 23.9421 53.8051 24.0019C53.4794 24.0226 53.1744 24.1238 52.9131 24.2947C52.9131 24.2801 52.9116 24.2663 52.9108 24.2517C52.8189 22.8762 51.5414 21.8301 50.0432 21.9367C49.9375 21.9436 49.8578 22.0348 49.8647 22.1405C49.8716 22.2463 49.9597 22.3359 50.0685 22.3183C51.3337 22.2378 52.4503 23.113 52.5284 24.2778C52.5376 24.4188 52.5315 24.5613 52.5108 24.7016C52.4978 24.7851 52.5422 24.8679 52.6188 24.9039C52.6955 24.9399 52.7867 24.9207 52.8434 24.8571C53.0909 24.5774 53.4411 24.4096 53.8296 24.3843C54.5584 24.3583 55.1899 24.8104 55.2811 25.4602C55.2887 25.5146 55.3194 25.5637 55.3654 25.5943C55.4113 25.6242 55.4673 25.6334 55.5217 25.6189C55.665 25.5798 55.8106 25.5553 55.9562 25.5445C57.0597 25.474 58.0153 26.2312 58.0828 27.2373C58.0912 27.3385 58.1755 27.4159 58.2751 27.4159Z" fill="#472B29"/>
<path d="M37.3551 23.4057C38.6571 22.7919 40.1629 23.2264 40.7185 24.3767C40.7875 24.5192 40.8388 24.6671 40.8725 24.8165" fill="#FDFCEF"/>
<path d="M40.8726 25.008C40.8864 25.008 40.901 25.0065 40.9156 25.0035C41.0182 24.9797 41.0834 24.877 41.0596 24.7736C41.0221 24.6073 40.9654 24.4456 40.8918 24.2931C40.2918 23.0509 38.6679 22.5773 37.274 23.2317C37.1782 23.2777 37.1368 23.3911 37.182 23.4869C37.2272 23.5835 37.3422 23.6218 37.4372 23.5789C38.6434 23.0087 40.0381 23.4049 40.547 24.4594C40.6083 24.5858 40.655 24.7199 40.6864 24.8586C40.7063 24.9483 40.7853 25.008 40.8726 25.008Z" fill="#472B29"/>
<path d="M32.0429 32.8659C31.5555 32.8659 31.0605 32.8276 30.5708 32.7532C26.4732 32.1272 23.3834 28.6335 23.3834 24.6264V12.7767C23.3834 8.76956 26.4732 5.27588 30.5708 4.64979C31.0605 4.57469 31.5555 4.53638 32.0429 4.53638C36.8171 4.53638 40.7024 8.12968 40.7024 12.5468V24.8555C40.7024 29.2726 36.8171 32.8659 32.0429 32.8659ZM32.0429 7.56643C31.6513 7.56643 31.2559 7.60628 30.8643 7.68597C28.4657 8.17259 26.7246 10.2746 26.7246 12.6839V24.7168C26.7246 27.1261 28.4657 29.2289 30.8643 29.7155C31.2551 29.7952 31.6505 29.8351 32.0421 29.8351C33.4537 29.8351 34.7833 29.3216 35.7879 28.3883C36.8025 27.4457 37.362 26.1897 37.362 24.854V12.5468C37.3612 9.80026 34.9756 7.56643 32.0429 7.56643Z" fill="#84A7D7"/>
<path d="M32.0437 4V5.07286C36.5221 5.07286 40.166 8.42553 40.166 12.5468V24.8548C40.166 28.9761 36.5221 32.3287 32.0429 32.3287C31.5832 32.3287 31.1149 32.2927 30.6521 32.2222C26.8143 31.6352 23.9199 28.3691 23.9199 24.6249V12.7767C23.9199 9.03322 26.8143 5.76715 30.6521 5.17937C31.1149 5.10887 31.5824 5.07286 32.0429 5.07286L32.0437 4ZM32.0429 30.3731C35.2715 30.3731 37.8977 27.8979 37.8977 24.8555V12.5476C37.8977 9.50528 35.2715 7.03005 32.0429 7.03005C31.6161 7.03005 31.1839 7.07373 30.7578 7.16033C28.1102 7.69829 26.1882 10.0218 26.1882 12.6848V24.7184C26.1882 27.3814 28.1102 29.7049 30.7578 30.2428C31.1839 30.3286 31.6161 30.3731 32.0429 30.3731ZM32.0429 4C31.5341 4 31.0145 4.03908 30.4904 4.11878C26.0204 4.80311 22.847 8.56577 22.847 12.7767V24.6264C22.847 28.8374 26.0204 32.6 30.4904 33.2844C31.0153 33.3648 31.5341 33.4031 32.0429 33.4031C37.1137 33.4031 41.2389 29.5692 41.2389 24.8555V12.5476C41.2389 7.83393 37.1137 3.99923 32.0429 4ZM32.0429 29.3002C31.6935 29.3002 31.3349 29.265 30.9716 29.1914C28.7631 28.7431 27.2611 26.8196 27.2611 24.7184V12.6848C27.2611 10.5835 28.7631 8.66079 30.9716 8.21172C31.3349 8.13816 31.6935 8.10291 32.0429 8.10291C34.6791 8.10291 36.8248 10.0969 36.8248 12.5476V24.8555C36.8248 27.3063 34.6799 29.3002 32.0429 29.3002Z" fill="#472B29"/>
<path d="M32.043 16.7976C30.4026 16.7976 28.7783 17.1207 27.2628 17.7484C25.7474 18.3762 24.3703 19.2963 23.2104 20.4562C22.0505 21.6161 21.1304 22.9931 20.5027 24.5086C19.875 26.0241 19.5519 27.6484 19.5519 29.2887C19.5519 30.9291 19.875 32.5534 20.5027 34.0688C21.1304 35.5843 22.0505 36.9613 23.2104 38.1213C24.3703 39.2812 25.7474 40.2012 27.2628 40.829C28.7783 41.4567 30.4026 41.7798 32.043 41.7798C33.6833 41.7798 35.3076 41.4567 36.8231 40.829C38.3386 40.2012 39.7156 39.2812 40.8755 38.1213C42.0354 36.9613 42.9555 35.5843 43.5833 34.0688C44.211 32.5534 44.5341 30.9291 44.5341 29.2887C44.5341 27.6484 44.211 26.0241 43.5833 24.5086C42.9555 22.9931 42.0354 21.6161 40.8755 20.4562C39.7156 19.2963 38.3386 18.3762 36.8231 17.7484C35.3076 17.1207 33.6833 16.7976 32.043 16.7976Z" fill="#F2DF5E"/>
<path d="M32.043 17.3341C38.635 17.3341 43.9977 22.6968 43.9977 29.2888C43.9977 35.8807 38.635 41.2434 32.043 41.2434C25.4511 41.2434 20.0884 35.8807 20.0884 29.2888C20.0884 22.6968 25.4511 17.3341 32.043 17.3341ZM32.043 16.2612C24.848 16.2612 19.0155 22.0937 19.0155 29.2888C19.0155 36.4838 24.848 42.3163 32.043 42.3163C39.2381 42.3163 45.0706 36.4838 45.0706 29.2888C45.0706 22.0937 39.2381 16.2612 32.043 16.2612Z" fill="#472B29"/>
<path d="M31.5088 16.947H31.892V41.6311H31.5088V16.947Z" fill="#472B29"/>
<path d="M19.358 29.0972H44.0421V29.4803H19.358V29.0972Z" fill="#472B29"/>
<path d="M22.8374 37.8804L40.2909 20.4263L40.5618 20.6972L23.1083 38.1513L22.8374 37.8804Z" fill="#472B29"/>
<path d="M25.369 39.8853L37.6984 18.5018L38.031 18.6935L25.7016 40.077L25.369 39.8853Z" fill="#472B29"/>
<path d="M28.6312 41.2441L28.2611 41.1437L34.7695 17.3333L35.1389 17.4336L28.6312 41.2441Z" fill="#472B29"/>
<path d="M19.8568 32.7662L19.7549 32.3968L43.5439 25.811L43.6458 26.1804L19.8568 32.7662Z" fill="#472B29"/>
<path d="M21.129 35.6591L20.9359 35.3289L42.2719 22.9182L42.4651 23.2485L21.129 35.6591Z" fill="#472B29"/>
<path d="M22.8365 20.699L23.1075 20.428L40.5615 37.8815L40.2906 38.1524L22.8365 20.699Z" fill="#472B29"/>
<path d="M25.3617 18.6963L25.6942 18.5043L38.0359 39.8807L37.7034 40.0727L25.3617 18.6963Z" fill="#472B29"/>
<path d="M34.7695 41.2441L28.2611 17.4336L28.6312 17.3333L35.1389 41.1437L34.7695 41.2441Z" fill="#472B29"/>
<path d="M43.5439 32.7662L19.7549 26.1804L19.8568 25.811L43.6458 32.3968L43.5439 32.7662Z" fill="#472B29"/>
<path d="M42.2719 35.6591L20.9359 23.2485L21.129 22.9182L42.4651 35.3289L42.2719 35.6591Z" fill="#472B29"/>
<path d="M32.043 20.718C29.7699 20.718 27.59 21.621 25.9827 23.2283C24.3754 24.8356 23.4724 27.0155 23.4724 29.2886C23.4724 31.5617 24.3754 33.7416 25.9827 35.3489C27.59 36.9562 29.7699 37.8592 32.043 37.8592C34.3161 37.8592 36.496 36.9562 38.1033 35.3489C39.7106 33.7416 40.6136 31.5617 40.6136 29.2886C40.6136 27.0155 39.7106 24.8356 38.1033 23.2283C36.496 21.621 34.3161 20.718 32.043 20.718Z" fill="#84A7D7"/>
<path d="M32.0429 38.2432C27.1055 38.2432 23.0884 34.2269 23.0884 29.2887C23.0884 24.3505 27.1055 20.3342 32.0429 20.3342C33.0698 20.3342 34.0767 20.5074 35.0377 20.8477C35.2377 20.9189 35.3412 21.1381 35.2714 21.3373C35.2002 21.5374 34.9802 21.6416 34.7817 21.5711C33.9035 21.2592 32.9816 21.1013 32.0429 21.1013C27.5277 21.1013 23.8547 24.7743 23.8547 29.2895C23.8547 33.8047 27.5277 37.4769 32.0429 37.4769C33.0491 37.4769 34.0315 37.2968 34.9634 36.9405C35.1595 36.8646 35.3825 36.9635 35.4584 37.1612C35.5343 37.3589 35.4354 37.5804 35.2377 37.6562C34.217 38.0455 33.1426 38.2432 32.0429 38.2432Z" fill="#472B29"/>
<path d="M38.7108 35.0569C38.6265 35.0569 38.5406 35.0293 38.4701 34.9718C38.3054 34.8385 38.2801 34.5979 38.4134 34.4331C39.5851 32.9832 40.2311 31.1571 40.2311 29.2888C40.2311 28.1738 40.0112 27.094 39.5767 26.0779C39.4939 25.8832 39.5844 25.6579 39.779 25.5751C39.9714 25.4931 40.199 25.582 40.2817 25.7775C40.7561 26.8886 40.9975 28.0703 40.9975 29.2895C40.9975 31.3325 40.2909 33.3296 39.0089 34.9159C38.933 35.0086 38.8226 35.0569 38.7108 35.0569Z" fill="#472B29"/>
<path d="M38.5989 24.1513C38.4893 24.1513 38.382 24.1045 38.3054 24.0149C37.8348 23.4562 37.2907 22.9612 36.6892 22.5451C36.5145 22.4248 36.4715 22.1857 36.5919 22.0125C36.7114 21.837 36.9513 21.7941 37.1245 21.9152C37.782 22.3696 38.3766 22.9098 38.8924 23.5214C39.0288 23.6831 39.0073 23.9245 38.8456 24.0616C38.7736 24.1214 38.6862 24.1513 38.5989 24.1513Z" fill="#472B29"/>
<path d="M30.7418 32.1625L31.3372 29.0328C31.3517 28.9592 31.3211 28.8857 31.2613 28.8412C30.9111 28.5883 30.7019 28.183 30.7019 27.7561C30.7019 27.0166 31.3035 26.415 32.043 26.415C32.7825 26.415 33.384 27.0166 33.384 27.7561C33.384 28.183 33.1748 28.5883 32.8246 28.8412C32.7649 28.8857 32.735 28.9592 32.7488 29.0328L33.3442 32.1625H30.7418Z" fill="#6673A7"/>
<path d="M32.043 26.6066C32.6768 26.6066 33.1925 27.1223 33.1925 27.756C33.1925 28.1269 33.017 28.4657 32.712 28.6864C32.591 28.7737 32.5319 28.9224 32.5595 29.0688L33.1121 31.9708H30.9725L31.525 29.0688C31.5526 28.9224 31.4936 28.7737 31.3725 28.6864C31.069 28.4657 30.8935 28.1269 30.8935 27.756C30.8935 27.1223 31.4093 26.6066 32.043 26.6066ZM32.043 26.2234C31.1962 26.2234 30.5104 26.9092 30.5104 27.756C30.5104 28.2679 30.764 28.7185 31.1495 28.9967L30.5104 32.354H33.5757L32.9366 28.9967C33.322 28.7185 33.5757 28.2679 33.5757 27.756C33.5757 26.9092 32.8898 26.2234 32.043 26.2234Z" fill="#472B29"/>
<path d="M25.2825 44.0689C26.7254 44.0689 27.9776 44.0689 27.9952 44.0689C29.6122 44.0689 30.9234 42.7861 30.9234 41.2036C30.9234 39.8227 29.9256 38.6709 28.5976 38.3989C28.6129 38.2778 28.6236 38.1559 28.6236 38.031C28.6236 36.3919 27.2657 35.063 25.5913 35.063C24.6027 35.063 23.7268 35.5282 23.1735 36.2455C23.0318 34.4209 21.3665 33.0131 19.4185 33.2469C17.9939 33.4177 16.8153 34.4952 16.5532 35.8761C16.4689 36.3191 16.4781 36.749 16.5617 37.1521C16.18 36.7497 15.6359 36.4961 15.0306 36.4961C13.9224 36.4961 13.0174 37.3406 12.9461 38.4073C12.4427 38.2985 11.8955 38.3054 11.3192 38.5169C10.2173 38.9215 9.43254 39.9369 9.38656 41.0887C9.32143 42.7232 10.6564 44.0689 12.3124 44.0689C12.4381 44.0689 12.8802 44.0689 12.9822 44.0689H19.0622H25.2825ZM20.319 44.0689H20.5948H20.319Z" fill="#FDFCEF"/>
<path d="M27.9952 44.4528H25.2825C25.071 44.4528 24.8993 44.2812 24.8993 44.0696C24.8993 43.8581 25.071 43.6865 25.2825 43.6865H27.9952C29.3984 43.6865 30.5402 42.573 30.5402 41.2044C30.5402 40.0365 29.6911 39.0142 28.5202 38.7751C28.324 38.7345 28.1914 38.5498 28.2167 38.3506C28.2305 38.2456 28.2397 38.1398 28.2397 38.031C28.2397 36.6056 27.0511 35.4462 25.5905 35.4462C24.7537 35.4462 23.9828 35.8225 23.4755 36.48C23.3789 36.6056 23.2141 36.657 23.0624 36.6133C22.9107 36.5673 22.8026 36.434 22.7904 36.2761C22.7298 35.4945 22.3574 34.7864 21.7413 34.2806C21.106 33.7595 20.2967 33.5304 19.463 33.6269C18.2016 33.7779 17.1594 34.732 16.9287 35.9466C16.8567 36.3259 16.859 36.7053 16.9356 37.0746C16.9701 37.2425 16.8897 37.4126 16.7379 37.4923C16.587 37.5704 16.4007 37.5406 16.2827 37.4156C15.9547 37.07 15.5095 36.8792 15.0298 36.8792C14.134 36.8792 13.386 37.562 13.3278 38.4326C13.3201 38.5444 13.2649 38.6456 13.176 38.713C13.0872 38.7797 12.9737 38.805 12.8649 38.7812C12.3752 38.6755 11.9124 38.7061 11.4503 38.877C10.4832 39.2318 9.80728 40.1269 9.7682 41.1032C9.74138 41.7745 9.98507 42.4129 10.4541 42.901C10.9407 43.4068 11.6005 43.6857 12.3109 43.6857H19.0599C19.2714 43.6857 19.4431 43.8574 19.4431 44.0689C19.4431 44.2804 19.2714 44.452 19.0599 44.452H12.3109C11.4028 44.452 10.5246 44.0804 9.90154 43.4321C9.28618 42.7914 8.96739 41.9538 9.00264 41.0733C9.05398 39.7897 9.93143 38.618 11.1859 38.1567C11.6534 37.9843 12.1361 37.9237 12.6266 37.9697C12.8902 36.8999 13.8749 36.1121 15.029 36.1121C15.4068 36.1121 15.7777 36.1987 16.1126 36.3596C16.1195 36.1742 16.141 35.9887 16.1762 35.8025C16.4682 34.263 17.7824 33.0553 19.3718 32.8652C20.4178 32.7372 21.4294 33.0323 22.2271 33.6859C22.8003 34.1557 23.2065 34.7657 23.4119 35.45C24.018 34.9534 24.7805 34.6783 25.5898 34.6783C27.4734 34.6783 29.0053 36.1819 29.0053 38.0295C29.0053 38.0555 29.0053 38.0816 29.0045 38.1084C30.3563 38.5337 31.3058 39.7851 31.3058 41.2028C31.3065 42.9953 29.8214 44.4528 27.9952 44.4528ZM20.5948 44.4528H20.319C20.1075 44.4528 19.9358 44.2812 19.9358 44.0696C19.9358 43.8581 20.1075 43.6865 20.319 43.6865H20.5948C20.8063 43.6865 20.978 43.8581 20.978 44.0696C20.978 44.2812 20.8063 44.4528 20.5948 44.4528Z" fill="#472B29"/>
<path d="M26.6871 40.0052C26.6733 40.0052 26.6595 40.0037 26.645 40.0006C26.5415 39.9776 26.4764 39.8749 26.5001 39.7715C26.5285 39.6458 26.5722 39.5224 26.6304 39.4044C27.0933 38.4664 28.3715 38.1193 29.4827 38.6327C29.5785 38.6772 29.6206 38.7906 29.5762 38.8864C29.5317 38.9829 29.4175 39.0236 29.3217 38.9799C28.4014 38.5538 27.3469 38.8205 26.9745 39.573C26.93 39.6634 26.8963 39.7585 26.8749 39.8542C26.8542 39.9447 26.7752 40.0052 26.6871 40.0052Z" fill="#472B29"/>
<path d="M22.7337 44.4528H21.8854C21.6739 44.4528 21.5022 44.2812 21.5022 44.0697C21.5022 43.8582 21.6739 43.6865 21.8854 43.6865H22.7337C22.9452 43.6865 23.1168 43.8582 23.1168 44.0697C23.1168 44.2812 22.946 44.4528 22.7337 44.4528Z" fill="#472B29"/>
</svg>
