<svg width="72" height="48" viewBox="0 0 72 48" fill="none" xmlns="http://www.w3.org/2000/svg">
<path d="M45 37H26V44H45V37Z" fill="#6F913D"/>
<path d="M45 41.458H26V44H45V41.458Z" fill="#F1BC19"/>
<path d="M45.5 45H26.5C26.224 45 26 44.776 26 44.5V37.5C26 37.224 26.224 37 26.5 37H45.5C45.776 37 46 37.224 46 37.5V44.5C46 44.776 45.776 45 45.5 45ZM27 44H45V38H27V44Z" fill="#472B29"/>
<path d="M22.5 37.5H16.5V44.5H22.5V37.5Z" fill="#F1BC19"/>
<path d="M22.5 45H16.5C16.224 45 16 44.776 16 44.5V37.5C16 37.224 16.224 37 16.5 37H22.5C22.776 37 23 37.224 23 37.5V44.5C23 44.776 22.776 45 22.5 45ZM17 44H22V38H17V44Z" fill="#472B29"/>
<path d="M50.5 42.5V37.5H48.5V44.5H53.5V42.5H50.5Z" fill="#F1BC19"/>
<path d="M53.5 45H48.5C48.224 45 48 44.776 48 44.5V37.5C48 37.224 48.224 37 48.5 37H50.5C50.776 37 51 37.224 51 37.5V42H53.5C53.776 42 54 42.224 54 42.5V44.5C54 44.776 53.776 45 53.5 45ZM49 44H53V43H50.5C50.224 43 50 42.776 50 42.5V38H49V44Z" fill="#472B29"/>
<path d="M13 46C12.448 46 12 45.552 12 45V6C12 5.449 11.551 5 11 5H9C8.448 5 8 4.552 8 4C8 3.448 8.448 3 9 3H11C12.654 3 14 4.346 14 6V45C14 45.552 13.552 46 13 46Z" fill="#472B29"/>
<path d="M12.7 39.3V9.69995H60.3C61.403 9.69995 62.3 10.597 62.3 11.7V37.299C62.3 38.402 61.403 39.299 60.3 39.299H12.7V39.3Z" fill="#88AE45"/>
<path d="M60.299 10.4C61.016 10.4 61.6 10.983 61.6 11.701V37.3C61.6 38.017 61.017 38.601 60.299 38.601H13.4V10.4H60.299ZM60.299 9H12V40H60.299C61.791 40 63 38.791 63 37.3V11.7C63 10.209 61.791 9 60.299 9Z" fill="#472B29"/>
<path d="M18.9059 20.2999C18.7929 20.2999 18.7 20.208 18.7 20.094V14.9059C18.7 14.7919 18.7929 14.7 18.9059 14.7H24.094C24.207 14.7 24.2999 14.7919 24.2999 14.9059V20.094C24.2999 20.208 24.207 20.2999 24.094 20.2999H18.9059Z" fill="#F1BC19"/>
<path d="M23.6 15.4V19.6H19.4V15.4H23.6ZM24.094 14H18.906C18.406 14 18 14.406 18 14.906V20.094C18 20.594 18.406 21 18.906 21H24.094C24.594 21 25 20.594 25 20.094V14.906C25 14.406 24.594 14 24.094 14Z" fill="#472B29"/>
<path d="M18.9059 34.2999C18.7929 34.2999 18.7 34.208 18.7 34.094V28.9059C18.7 28.7919 18.7929 28.7 18.9059 28.7H24.094C24.207 28.7 24.2999 28.7919 24.2999 28.9059V34.094C24.2999 34.208 24.207 34.2999 24.094 34.2999H18.9059Z" fill="#F1BC19"/>
<path d="M23.6 29.4V33.6H19.4V29.4H23.6ZM24.094 28H18.906C18.406 28 18 28.406 18 28.906V34.094C18 34.594 18.406 35 18.906 35H24.094C24.594 35 25 34.594 25 34.094V28.906C25 28.406 24.594 28 24.094 28Z" fill="#472B29"/>
<path d="M48 34.2999C53.6885 34.2999 58.3 29.6885 58.3 24C58.3 18.3114 53.6885 13.7 48 13.7C42.3114 13.7 37.7 18.3114 37.7 24C37.7 29.6885 42.3114 34.2999 48 34.2999Z" fill="#836F61"/>
<path d="M48 14.4C53.293 14.4 57.6 18.707 57.6 24C57.6 29.293 53.293 33.6 48 33.6C42.707 33.6 38.4 29.293 38.4 24C38.4 18.707 42.707 14.4 48 14.4ZM48 13C41.925 13 37 17.925 37 24C37 30.075 41.925 35 48 35C54.075 35 59 30.075 59 24C59 17.925 54.075 13 48 13Z" fill="#472B29"/>
<path d="M48 27.2999C49.8225 27.2999 51.3 25.8225 51.3 24C51.3 22.1774 49.8225 20.7 48 20.7C46.1774 20.7 44.7 22.1774 44.7 24C44.7 25.8225 46.1774 27.2999 48 27.2999Z" fill="#CBC9BC"/>
<path d="M48 21.4C49.434 21.4 50.6 22.567 50.6 24C50.6 25.433 49.434 26.6 48 26.6C46.566 26.6 45.4 25.433 45.4 24C45.4 22.567 46.566 21.4 48 21.4ZM48 20C45.791 20 44 21.791 44 24C44 26.209 45.791 28 48 28C50.209 28 52 26.209 52 24C52 21.791 50.209 20 48 20Z" fill="#472B29"/>
<path d="M47.5 21.0001C47.224 21.0001 47 20.7761 47 20.5001C47 18.4391 47.662 15.6781 49.141 14.1521C49.334 13.9551 49.651 13.9481 49.848 14.1411C50.046 14.3331 50.051 14.6501 49.86 14.8481C48.582 16.1661 48 18.7011 48 20.5001C48 20.7761 47.776 21.0001 47.5 21.0001Z" fill="#472B29"/>
<path d="M46.4999 34C46.3749 34 46.2489 33.953 46.1519 33.859C45.9539 33.667 45.9489 33.35 46.1399 33.152C47.4179 31.834 47.9999 29.299 47.9999 27.5C47.9999 27.224 48.2239 27 48.4999 27C48.7759 27 48.9999 27.224 48.9999 27.5C48.9999 29.561 48.3379 32.322 46.8589 33.848C46.7609 33.949 46.6309 34 46.4999 34Z" fill="#472B29"/>
<path d="M57.5 26C57.375 26 57.249 25.953 57.152 25.859C55.835 24.582 53.299 24 51.5 24C51.224 24 51 23.776 51 23.5C51 23.224 51.224 23 51.5 23C53.561 23 56.323 23.662 57.848 25.141C58.046 25.333 58.051 25.65 57.86 25.848C57.761 25.949 57.631 26 57.5 26Z" fill="#472B29"/>
<path d="M44.4999 25.0001C42.4389 25.0001 39.6769 24.3381 38.1519 22.8591C37.9539 22.6671 37.9489 22.3501 38.1399 22.1521C38.3329 21.9551 38.6499 21.9481 38.8469 22.1411C40.1649 23.4181 42.7009 24.0001 44.4999 24.0001C44.7759 24.0001 44.9999 24.2241 44.9999 24.5001C44.9999 24.7761 44.7759 25.0001 44.4999 25.0001Z" fill="#472B29"/>
<path d="M50.1211 21.671C49.9931 21.671 49.8651 21.622 49.7671 21.525C49.5721 21.33 49.5721 21.013 49.7671 20.818C51.2241 19.361 53.6461 17.876 55.7701 17.843C55.7731 17.843 55.7761 17.843 55.7781 17.843C56.0501 17.843 56.2741 18.062 56.2781 18.335C56.2821 18.611 56.0621 18.838 55.7861 18.843C53.9511 18.871 51.7461 20.253 50.4741 21.525C50.3771 21.623 50.2491 21.671 50.1211 21.671Z" fill="#472B29"/>
<path d="M40.222 30.1571C39.95 30.1571 39.726 29.9381 39.722 29.6651C39.718 29.3891 39.938 29.1621 40.214 29.1571C42.049 29.1291 44.254 27.7471 45.526 26.4751C45.721 26.2801 46.038 26.2801 46.233 26.4751C46.428 26.6701 46.428 26.9871 46.233 27.1821C44.776 28.6391 42.354 30.1241 40.23 30.1571C40.227 30.1571 40.224 30.1571 40.222 30.1571Z" fill="#472B29"/>
<path d="M53.6569 32.2781C53.3849 32.2781 53.1609 32.0591 53.1569 31.7861C53.1279 29.9521 51.7459 27.7461 50.4739 26.4741C50.2789 26.2791 50.2789 25.9621 50.4739 25.7671C50.6689 25.5721 50.9859 25.5721 51.1809 25.7671C52.6379 27.2251 54.1229 29.6451 54.1569 31.7701C54.1609 32.0461 53.9409 32.2731 53.6649 32.2781C53.6619 32.2781 53.6599 32.2781 53.6569 32.2781Z" fill="#472B29"/>
<path d="M45.1721 22.3791C45.0441 22.3791 44.9161 22.3301 44.8181 22.2331C43.3611 20.7751 41.8761 18.3551 41.8421 16.2301C41.8381 15.9541 42.0581 15.7271 42.3341 15.7221C42.5981 15.7111 42.8381 15.9381 42.8421 16.2141C42.8711 18.0481 44.2531 20.2541 45.5251 21.5261C45.7201 21.7211 45.7201 22.0381 45.5251 22.2331C45.4281 22.3301 45.3001 22.3791 45.1721 22.3791Z" fill="#472B29"/>
<path d="M29.5 41.75H26.5C26.362 41.75 26.25 41.638 26.25 41.5C26.25 41.362 26.362 41.25 26.5 41.25H29.5C29.638 41.25 29.75 41.362 29.75 41.5C29.75 41.638 29.638 41.75 29.5 41.75Z" fill="#472B29"/>
<path d="M29.501 44.75C29.363 44.75 29.251 44.638 29.251 44.5V43C29.251 42.862 29.363 42.75 29.501 42.75C29.639 42.75 29.751 42.862 29.751 43V44.5C29.751 44.638 29.64 44.75 29.501 44.75Z" fill="#472B29"/>
<path d="M33.501 44.75C33.363 44.75 33.251 44.638 33.251 44.5V43C33.251 42.862 33.363 42.75 33.501 42.75C33.639 42.75 33.751 42.862 33.751 43V44.5C33.751 44.638 33.64 44.75 33.501 44.75Z" fill="#472B29"/>
<path d="M37.501 44.75C37.363 44.75 37.251 44.638 37.251 44.5V43C37.251 42.862 37.363 42.75 37.501 42.75C37.639 42.75 37.751 42.862 37.751 43V44.5C37.751 44.638 37.639 44.75 37.501 44.75Z" fill="#472B29"/>
<path d="M41.501 44.75C41.363 44.75 41.251 44.638 41.251 44.5V43C41.251 42.862 41.363 42.75 41.501 42.75C41.639 42.75 41.751 42.862 41.751 43V44.5C41.751 44.638 41.639 44.75 41.501 44.75Z" fill="#472B29"/>
<path d="M39.5 41.75H31.5C31.362 41.75 31.25 41.638 31.25 41.5C31.25 41.362 31.362 41.25 31.5 41.25H39.5C39.638 41.25 39.75 41.362 39.75 41.5C39.75 41.638 39.638 41.75 39.5 41.75Z" fill="#472B29"/>
<path d="M45.5 41.75H41.5C41.362 41.75 41.25 41.638 41.25 41.5C41.25 41.362 41.362 41.25 41.5 41.25H45.5C45.638 41.25 45.75 41.362 45.75 41.5C45.75 41.638 45.638 41.75 45.5 41.75Z" fill="#472B29"/>
<path d="M34.5 14.5H27.5V16.5H34.5V14.5Z" fill="#CBC9BC"/>
<path d="M34.5 17H27.5C27.224 17 27 16.776 27 16.5V14.5C27 14.224 27.224 14 27.5 14H34.5C34.776 14 35 14.224 35 14.5V16.5C35 16.776 34.776 17 34.5 17ZM28 16H34V15H28V16Z" fill="#472B29"/>
<path d="M34.5 18.5H27.5V20.5H34.5V18.5Z" fill="#CBC9BC"/>
<path d="M34.5 21H27.5C27.224 21 27 20.776 27 20.5V18.5C27 18.224 27.224 18 27.5 18H34.5C34.776 18 35 18.224 35 18.5V20.5C35 20.776 34.776 21 34.5 21ZM28 20H34V19H28V20Z" fill="#472B29"/>
<path d="M34.5 28.5H27.5V30.5H34.5V28.5Z" fill="#CBC9BC"/>
<path d="M34.5 31H27.5C27.224 31 27 30.776 27 30.5V28.5C27 28.224 27.224 28 27.5 28H34.5C34.776 28 35 28.224 35 28.5V30.5C35 30.776 34.776 31 34.5 31ZM28 30H34V29H28V30Z" fill="#472B29"/>
<path d="M34.5 32.5H27.5V34.5H34.5V32.5Z" fill="#CBC9BC"/>
<path d="M34.5 35H27.5C27.224 35 27 34.776 27 34.5V32.5C27 32.224 27.224 32 27.5 32H34.5C34.776 32 35 32.224 35 32.5V34.5C35 34.776 34.776 35 34.5 35ZM28 34H34V33H28V34Z" fill="#472B29"/>
<path d="M15.5 16C15.224 16 15 15.776 15 15.5V11.5C15 11.224 15.224 11 15.5 11C15.776 11 16 11.224 16 11.5V15.5C16 15.776 15.776 16 15.5 16Z" fill="#472B29"/>
<path d="M15.5 26C15.224 26 15 25.776 15 25.5V17.5C15 17.224 15.224 17 15.5 17C15.776 17 16 17.224 16 17.5V25.5C16 25.776 15.776 26 15.5 26Z" fill="#472B29"/>
<path d="M15.5 37C15.224 37 15 36.776 15 36.5V27.5C15 27.224 15.224 27 15.5 27C15.776 27 16 27.224 16 27.5V36.5C16 36.776 15.776 37 15.5 37Z" fill="#472B29"/>
</svg>
